<svg xmlns="http://www.w3.org/2000/svg" viewBox="0 0 116.46 113.6"><defs><style>.cls-1{stroke:#000;stroke-miterlimit:10;stroke-width:1.4px;}</style></defs><title>cat</title><g id="Layer_2" data-name="Layer 2"><g id="Layer_1-2" data-name="Layer 1"><path class="cls-1" d="M71,67.88a3.74,3.74,0,0,1-1.9-.63l-8.43-5.69a3.7,3.7,0,0,1,1.25-6.68l12.41-2.82a3.7,3.7,0,0,1,4.17,5.18l-4,8.5a3.7,3.7,0,0,1-2.37,2A3.8,3.8,0,0,1,71,67.88ZM75.2,54.93,75,55,62.58,57.78a.68.68,0,0,0-.55.57.71.71,0,0,0,.31.75l8.43,5.68a.72.72,0,0,0,.61.1.7.7,0,0,0,.46-.39h0l4-8.51a.72.72,0,0,0-.09-.77A.75.75,0,0,0,75.2,54.93Z"/><path d="M62.09,113.55a49.45,49.45,0,0,1-33.49-15,50.14,50.14,0,0,1-14.12-37.1c0-.28,0-.56,0-.84L.48,25.73a6.5,6.5,0,0,1,7.9-8.66l24.91,7.49a50,50,0,0,1,50.79-6.81L106,1.32a6.42,6.42,0,0,1,7.11-.46,6.44,6.44,0,0,1,3.3,6.32l-4.14,42.38a50,50,0,0,1-46.89,64C64.29,113.61,63.19,113.6,62.09,113.55ZM6.55,21.91a1.39,1.39,0,0,0-1.06.46,1.33,1.33,0,0,0-.26,1.44l14.5,36-.08,1-.06.89a44.83,44.83,0,0,0,45.72,46.83,44.81,44.81,0,0,0,41.93-57.91l-.15-.49,4.24-43.39a1.36,1.36,0,0,0-.71-1.36,1.34,1.34,0,0,0-1.53.1L84.71,23.68,83.32,23a44.84,44.84,0,0,0-47.81,6.34l-1.06.89L6.91,22A1.75,1.75,0,0,0,6.55,21.91Z"/><path class="cls-1" d="M42.53,59.11,42,58.35A7.27,7.27,0,0,1,41.23,52a10.67,10.67,0,0,1,4.3-5.63c4.39-3,9.95-2.4,12.4,1.23l.51.76Zm9.36-12.78a9,9,0,0,0-5.33,1.59A8.8,8.8,0,0,0,43,52.56a5.73,5.73,0,0,0,.11,3.95L55.82,48A5.83,5.83,0,0,0,51.89,46.33Z"/><path class="cls-1" d="M89.78,48.43,73.76,47l.07-.79a6.48,6.48,0,0,1,2.85-4.74,9,9,0,0,1,11.24,1,6.54,6.54,0,0,1,1.94,5.18ZM75.54,45.54l12.75,1.17a5.09,5.09,0,0,0-1.5-3.15,7.37,7.37,0,0,0-9.2-.84A5.08,5.08,0,0,0,75.54,45.54Z"/><path class="cls-1" d="M66.68,83.63a1.3,1.3,0,0,1-1-.52A1.28,1.28,0,0,1,66,81.32l6.64-5-1.93-9.55a1.28,1.28,0,0,1,2.51-.51l2.26,11.15-8,5.92A1.25,1.25,0,0,1,66.68,83.63Z"/><path class="cls-1" d="M83.6,78l-9-.41A1.28,1.28,0,1,1,74.76,75l8.95.4A1.28,1.28,0,0,1,83.6,78Z"/><path d="M96.69,100.36A2.56,2.56,0,0,1,95,96a45.13,45.13,0,0,0,14.08-30.78A42.24,42.24,0,0,0,96.93,34.1a2.56,2.56,0,0,1,3.68-3.57,47.35,47.35,0,0,1,13.62,34.84A50.24,50.24,0,0,1,98.59,99.64,2.57,2.57,0,0,1,96.69,100.36Z"/></g></g></svg>