<svg xmlns="http://www.w3.org/2000/svg" viewBox="0 0 166.38 151.65"><title>coffeecup</title><g id="Layer_2" data-name="Layer 2"><g id="Layer_1-2" data-name="Layer 1"><path d="M77.89,151.65c-38.61,0-72-28.75-77.74-66.87A13.23,13.23,0,0,1,13.23,69.57H142.54a13.31,13.31,0,0,1,13.05,11.15A29.81,29.81,0,0,1,163,117.39a29.49,29.49,0,0,1-33.52,14.92A78.34,78.34,0,0,1,77.89,151.65ZM13.23,76.52A6.28,6.28,0,0,0,7,83.75c5.2,34.74,35.66,60.95,70.86,60.95a71.45,71.45,0,0,0,48.38-18.83l1.51-1.38,1.93.64a22.66,22.66,0,0,0,20.51-39.78l-1.38-1,0-1.71a6.31,6.31,0,0,0-6.26-6.11Zm124,43.4a15.61,15.61,0,0,1-5.15-.87,5.09,5.09,0,0,1-2.83-7.18l.36-.56,2.38-3a32.68,32.68,0,0,0,5.82-11l1.39-4.37a5.09,5.09,0,0,1,7.51-1.74,15.9,15.9,0,0,1-9.48,28.73Zm0-7a9.12,9.12,0,0,0,8-4.79h0a9,9,0,0,0-.62-9.33l-.14.47a39.53,39.53,0,0,1-7.06,13.39Z"/><path d="M75.11,65.39a3.49,3.49,0,0,1-3-1.72c-10-17.1-11-21.86.54-33.43C79.15,23.73,74.38,9.83,72,5a3.48,3.48,0,0,1,6.22-3.11c.45.89,10.73,21.85-.65,33.23-8,8-8.87,8.87.55,25a3.47,3.47,0,0,1-3,5.23Z"/><path d="M88.41,57.24a3.47,3.47,0,0,1-3.19-2.08c-4.81-10.94-5-14.53,2.93-20.81,3.42-2.73,1.68-10.34.8-12.79a3.47,3.47,0,0,1,6.53-2.37c.21.57,5.06,14.19-3,20.6-4.75,3.78-4.75,3.78-.88,12.57A3.49,3.49,0,0,1,89.8,57,3.43,3.43,0,0,1,88.41,57.24Z"/><path d="M56.32,57.74a3.47,3.47,0,0,1-3-1.64,22.67,22.67,0,0,1,.12-24.73,3.48,3.48,0,0,1,5.66,4,15.79,15.79,0,0,0,.12,17,3.47,3.47,0,0,1-1.11,4.79A3.44,3.44,0,0,1,56.32,57.74Z"/></g></g></svg>