<svg xmlns="http://www.w3.org/2000/svg" viewBox="0 0 80.45 131.6"><title>design</title><g id="Layer_2" data-name="Layer 2"><g id="Layer_1-2" data-name="Layer 1"><path d="M78.79,55.17l-.2-5.75L77,2.78A2.87,2.87,0,0,0,72.1.84L33.92,39l-4.86,4.86L.84,72.1a2.84,2.84,0,0,0-.78,2.61A2.89,2.89,0,0,0,1.79,76.8l28,11.39-17.9,31.05a2.89,2.89,0,0,0-.24,2.3,2.93,2.93,0,0,0,1.52,1.75l17.24,8a3,3,0,0,0,1.22.27A2.87,2.87,0,0,0,34.2,130L50.26,96.23l26.2,11a2.86,2.86,0,0,0,4-2.73ZM50,89.88a2.88,2.88,0,0,0-3.71,1.4l-13.34,28a6.27,6.27,0,0,1-8.3,3h0a6.26,6.26,0,0,1-2.78-8.8L36.4,88.21A2.89,2.89,0,0,0,35,84.11l-27-11L71.49,9.59l1.34,39.83.2,5.75,1.53,45Z"/></g></g></svg>