<svg xmlns="http://www.w3.org/2000/svg" viewBox="0 0 121.28 102.61"><defs><style>.cls-1{fill:none;stroke-width:4.99px;}.cls-1,.cls-2{stroke:#000;stroke-miterlimit:10;}.cls-2,.cls-3{fill:#fff;}.cls-2{stroke-width:3.32px;}</style></defs><title>driving</title><g id="Layer_2" data-name="Layer 2"><g id="Layer_1-2" data-name="Layer 1"><path class="cls-1" d="M106.35,38.65h-20A42.12,42.12,0,0,0,44.43,2.49C21.31,2.49,2.49,21.68,2.49,45.27c0,.84,0,1.71.1,2.73a9.53,9.53,0,0,0-.1,1.26V77.09c0,5.71,5.4,10.52,12.29,10.94H106.5c6.89-.42,12.29-5.23,12.29-10.94V49.26C118.79,43.41,113.21,38.65,106.35,38.65Z"/><path class="cls-2" d="M108.37,46.93h-4.86a2.13,2.13,0,0,0-2.05,2.76,9.16,9.16,0,0,0,6.33,6,2.15,2.15,0,0,0,2.72-2.07V49.07A2.14,2.14,0,0,0,108.37,46.93Z"/><path d="M108.37,47.76a1.31,1.31,0,0,1,1.31,1.31v4.58A1.31,1.31,0,0,1,108.37,55a1.47,1.47,0,0,1-.36,0,8.32,8.32,0,0,1-5.75-5.48,1.23,1.23,0,0,1,.19-1.14,1.31,1.31,0,0,1,1.06-.54h4.86m0-.83h-4.86a2.13,2.13,0,0,0-2.05,2.76,9.16,9.16,0,0,0,6.33,6,2.38,2.38,0,0,0,.58.08,2.15,2.15,0,0,0,2.14-2.15V49.07a2.14,2.14,0,0,0-2.14-2.14Z"/><circle class="cls-3" cx="31.55" cy="85.16" r="13.3"/><path d="M31.55,71.86a13.3,13.3,0,1,1-13.29,13.3,13.29,13.29,0,0,1,13.29-13.3m0-4.15A17.45,17.45,0,1,0,49,85.16,17.47,17.47,0,0,0,31.55,67.71Z"/><circle class="cls-3" cx="88.07" cy="85.16" r="13.3"/><path d="M88.07,71.86a13.3,13.3,0,1,1-13.3,13.3,13.29,13.29,0,0,1,13.3-13.3m0-4.15a17.45,17.45,0,1,0,17.45,17.45A17.47,17.47,0,0,0,88.07,67.71Z"/><path class="cls-2" d="M47.34,41.11H73.11c0-14.23-11.54-24.93-25.77-24.93Z"/><path d="M48.17,17c13.3.4,23.66,10.41,24.09,23.26H48.17V17m-.83-.84V41.11H73.11c0-14.23-11.54-24.93-25.77-24.93Z"/></g></g></svg>