<svg xmlns="http://www.w3.org/2000/svg" viewBox="0 0 131.84 167.5"><title>Eat</title><g id="Layer_2" data-name="Layer 2"><g id="Layer_1-2" data-name="Layer 1"><path d="M45,7c-2.47.88-3,3.34-5,18.26-.28,2-.6,4.4-1,6.72-.42-2.78-.83-5.77-1.19-8.38C35.05,3.56,34.26,0,30.59,0S26.23,3.25,23.5,23.51c-.35,2.61-.75,5.59-1.16,8.37-.35-2.32-.69-4.71-1-6.74C19.27,10.26,18.75,7.8,16.28,6.93a3,3,0,0,0-3.16.72C4.9,15.67,0,28.88,0,43c0,16,6.39,30.78,16.4,38.13V153A14.39,14.39,0,0,0,30.59,167.5,14.39,14.39,0,0,0,44.78,153V81.14c10-7.35,16.41-22.09,16.41-38.13,0-14.08-4.88-27.27-13-35.29A3,3,0,0,0,45,7ZM43.82,74.46a22.86,22.86,0,0,1-13.67,5.22A2.33,2.33,0,0,0,30,84.33h.3a25.54,25.54,0,0,0,8.83-1.83V153a8.52,8.52,0,1,1-17,0V78l-1.32-.86C11.59,71.19,5.67,57.8,5.67,43c0-10.74,3.1-20.8,8.44-27.83.55,3.05,1.15,7.32,1.64,10.79,2.25,15.94,3,18.74,5.1,20a3.08,3.08,0,0,0,2.8.16c2.4-1.05,3-3.49,5.47-21.79.43-3.22,1-7.18,1.51-10.71.57,3.55,1.12,7.56,1.57,10.8,2.5,18.08,3.17,20.72,5.54,21.79a3,3,0,0,0,2.81-.13c2.13-1.22,2.83-4,5-20,.47-3.45,1.06-7.69,1.59-10.75,5.28,7,8.34,17,8.34,27.7C55.51,55.88,51,67.69,43.82,74.46Z"/><path d="M100,0C82.42,0,68.13,19.29,68.13,43c0,16.42,6.88,31.32,17.66,38.53V153a14.19,14.19,0,1,0,28.38,0V81.54C125,74.33,131.84,59.43,131.84,43,131.84,19.29,117.55,0,100,0Zm0,161.68A8.64,8.64,0,0,1,91.46,153V78.23L90,77.39C80.18,71.59,73.8,58.09,73.8,43,73.8,22.5,85.55,5.82,100,5.82S126.16,22.5,126.16,43c0,14.09-5.56,26.79-14.34,33.13a22.31,22.31,0,0,1-11.33,3.54,2.33,2.33,0,0,0-.17,4.65h.3a25,25,0,0,0,7.88-1.47V153A8.63,8.63,0,0,1,100,161.68Z"/></g></g></svg>