<svg xmlns="http://www.w3.org/2000/svg" viewBox="0 0 87 148.41"><title>meditate</title><g id="Layer_2" data-name="Layer 2"><g id="Layer_1-2" data-name="Layer 1"><path d="M43.5,0a43.5,43.5,0,0,0-21,81.6v40.71A14.89,14.89,0,0,0,29.69,135a13.82,13.82,0,0,0,27.62,0,14.89,14.89,0,0,0,7.17-12.68V81.6A43.26,43.26,0,0,0,86.7,48.5c0-.45.1-.91.13-1.37s.06-.69.08-1c.06-.86.09-1.73.09-2.6A43.54,43.54,0,0,0,43.5,0ZM81.8,45.85c0,.3,0,.6-.07.9s-.08.84-.13,1.25A37.41,37.41,0,0,1,44.52,80.86a2.56,2.56,0,1,0,0,5.12A42.23,42.23,0,0,0,59.36,83.3v39a9.77,9.77,0,0,1-5.68,8.82l-1.48.69v2.77a8.7,8.7,0,0,1-17.4,0v-2.77l-1.48-.69a9.77,9.77,0,0,1-5.48-7A39.6,39.6,0,0,0,39,126a18.13,18.13,0,0,0,7.13-1.29,1.54,1.54,0,1,0-1.21-2.83,13.57,13.57,0,0,1-4.32,1l-8.06-.69a46.8,46.8,0,0,1-4.92-1.35V118A39.81,39.81,0,0,0,39,119.9a18.13,18.13,0,0,0,7.13-1.29,1.54,1.54,0,1,0-1.21-2.83,13.57,13.57,0,0,1-4.32,1l-8.06-.69a46.8,46.8,0,0,1-4.92-1.35v-2.91A39.81,39.81,0,0,0,39,113.76a18.14,18.14,0,0,0,7.13-1.3,1.53,1.53,0,1,0-1.21-2.82,13.57,13.57,0,0,1-4.32,1l-8.06-.7a44.47,44.47,0,0,1-4.92-1.35v-2.9A39.84,39.84,0,0,0,39,107.61a18.13,18.13,0,0,0,7.13-1.29,1.53,1.53,0,1,0-1.21-2.82,13.57,13.57,0,0,1-4.32,1l-8.06-.7a44.47,44.47,0,0,1-4.92-1.35v-24l-1.41-.71A38.38,38.38,0,1,1,81.88,43.5C81.88,44.29,81.85,45.07,81.8,45.85Z"/></g></g></svg>