<svg xmlns="http://www.w3.org/2000/svg" viewBox="0 0 86 142.38"><defs><style>.cls-1{fill:none;stroke:#000;stroke-miterlimit:10;stroke-width:3.43px;}</style></defs><title>phone</title><g id="Layer_2" data-name="Layer 2"><g id="Layer_1-2" data-name="Layer 1"><path d="M71.67,142.38H14.33A14.35,14.35,0,0,1,0,128.05V14.33A14.35,14.35,0,0,1,14.33,0H71.67A14.35,14.35,0,0,1,86,14.33V128.05A14.35,14.35,0,0,1,71.67,142.38ZM14.33,5.73a8.61,8.61,0,0,0-8.6,8.6V128.05a8.61,8.61,0,0,0,8.6,8.6H71.67a8.61,8.61,0,0,0,8.6-8.6V14.33a8.61,8.61,0,0,0-8.6-8.6Z"/><path class="cls-1" d="M68.8,22H17.2a5.27,5.27,0,0,0-5.26,5.25v95.56a5.28,5.28,0,0,0,5.26,5.26H33.51a3.35,3.35,0,0,0,3.35-3.78,6.87,6.87,0,0,1,0-2.3,6.69,6.69,0,0,1,13.26,1.3,7.14,7.14,0,0,1-.07.93,3.39,3.39,0,0,0,3.35,3.85H68.8a5.28,5.28,0,0,0,5.26-5.26V27.23A5.27,5.27,0,0,0,68.8,22Z"/></g></g></svg>