<svg xmlns="http://www.w3.org/2000/svg" viewBox="0 0 142.38 86"><defs><style>.cls-1{fill:none;stroke:#000;stroke-miterlimit:10;stroke-width:3.43px;}</style></defs><title>reading</title><g id="Layer_2" data-name="Layer 2"><g id="Layer_1-2" data-name="Layer 1"><path d="M142.38,14.33V71.67A14.35,14.35,0,0,1,128.05,86H14.33A14.35,14.35,0,0,1,0,71.67V14.33A14.35,14.35,0,0,1,14.33,0H128.05A14.35,14.35,0,0,1,142.38,14.33ZM5.73,71.67a8.61,8.61,0,0,0,8.6,8.6H128.05a8.61,8.61,0,0,0,8.6-8.6V14.33a8.61,8.61,0,0,0-8.6-8.6H14.33a8.61,8.61,0,0,0-8.6,8.6Z"/><line class="cls-1" x1="71.22" y1="3.5" x2="71.22" y2="80.27"/><line class="cls-1" x1="85.72" y1="23.5" x2="123.72" y2="23.5"/><line class="cls-1" x1="92.22" y1="31.5" x2="123.72" y2="31.5"/><line class="cls-1" x1="85.72" y1="39.5" x2="123.72" y2="39.5"/><line class="cls-1" x1="85.72" y1="47.5" x2="119.22" y2="47.5"/><line class="cls-1" x1="85.72" y1="55.5" x2="123.72" y2="55.5"/><line class="cls-1" x1="92.22" y1="63.5" x2="123.72" y2="63.5"/><line class="cls-1" x1="85.72" y1="71.5" x2="123.72" y2="71.5"/></g></g></svg>