<svg xmlns="http://www.w3.org/2000/svg" viewBox="0 0 193.39 77.78"><defs><style>.cls-1{fill:#231f20;}</style></defs><title>Asset 61</title><g id="Layer_2" data-name="Layer 2"><g id="Layer_1-2" data-name="Layer 1"><path class="cls-1" d="M51.41,48.16C51.41,40.62,56.86,35,64,35a13.42,13.42,0,0,1,7,1.8l-3.45,5.55a6.35,6.35,0,0,0-3.17-.83c-3.75,0-6.13,2.92-6.13,6.63s2.43,6.33,6,6.33A6.71,6.71,0,0,0,68,53.28l3.45,5.45A13.1,13.1,0,0,1,64.07,61C56.52,61,51.41,55.66,51.41,48.16Z"/><path class="cls-1" d="M91.1,41.64H85.45v19H78.83v-19H73.18V35.31H91.1Z"/><path class="cls-1" d="M101.39,35.31V60.63H94.76V35.31Z"/><path class="cls-1" d="M127.06,35.31l-7.4,25.32h-8.43l-7.4-25.32h6.91l4.73,17.63,4.67-17.63Z"/><path class="cls-1" d="M141.09,58.24h-8.18l-.63,2.39h-6.87l7.4-25.32h8.43l7.35,25.32h-6.87Zm-1.56-5.79L137,42.71l-2.58,9.74Z"/><path class="cls-1" d="M169,41.64H163.3v19h-6.62v-19H151V35.31H169Z"/><path class="cls-1" d="M179.23,41.59V45h8.48v5.94h-8.48v3.46h11.3v6.28H172.61V35.31h17.92v6.28Z"/><path class="cls-1" d="M154.24,69.79l-1.76-1.42A4.77,4.77,0,0,1,156.74,66c2.43,0,3.93,1.41,3.93,3.54,0,1.91-1,2.87-3,4.44l-1.86,1.43h5v2.17h-8.44v-2l3.8-3.11c1.41-1.18,2-1.8,2-2.74a1.4,1.4,0,0,0-1.53-1.49C155.69,68.25,155.09,68.74,154.24,69.79Z"/><path class="cls-1" d="M167.22,77.78c-3.05,0-5.05-2.56-5.05-5.89s2-5.92,5.08-5.92,5.06,2.56,5.06,5.89S170.27,77.78,167.22,77.78Zm0-9.54c-1.51,0-2.48,1.51-2.48,3.62s1,3.65,2.51,3.65,2.48-1.53,2.48-3.62S168.74,68.24,167.22,68.24Z"/><path class="cls-1" d="M175.33,69.79l-1.77-1.42A4.77,4.77,0,0,1,177.82,66c2.43,0,3.93,1.41,3.93,3.54,0,1.91-1,2.87-3,4.44l-1.86,1.43h5v2.17h-8.44v-2l3.8-3.11c1.42-1.18,2-1.8,2-2.74a1.4,1.4,0,0,0-1.53-1.49C176.78,68.25,176.17,68.74,175.33,69.79Z"/><path class="cls-1" d="M188.3,77.78c-3,0-5.05-2.56-5.05-5.89s2-5.92,5.09-5.92,5,2.56,5,5.89S191.35,77.78,188.3,77.78Zm0-9.54c-1.51,0-2.47,1.51-2.47,3.62s1,3.65,2.51,3.65,2.48-1.53,2.48-3.62S189.82,68.24,188.3,68.24Z"/><path class="cls-1" d="M45.77,0,23.48,2.72l-.82.1-2.52.31-.75.09-.84.1L18,3.39l-.79.1-.57.07L14,3.87l-.32,0-.27,0-4.67.57-.52.06-1.68.2-.48.06L6,4.86,3,7.23l-.52.42L0,9.68,2.09,34.42l0,.45.06.69.05.6.14,1.67.08,1,.15,1.74,0,.26.22,2.62.06.61.06.81,0,.6.14,1.6,0,.59.5,5.89,0,.35.12,1.41,0,.57L4,57.17l.06.72,0,.3.06.74,0,.6L4.33,61l1.54-.18.55-.06,2.35-.28H24.7V49.91H36.34V60.44h9.43L49.12,9.81Zm-36,42.21-1-.79a.31.31,0,0,0-.42,0,.29.29,0,0,0,0,.42l1.23,1,0,0-.08.65-.08,0a.3.3,0,0,0-.18.38l.16.43-.15,1.23L8,46.14a.3.3,0,0,0,.11.58l.11,0,1-.4L9.1,47.37,8.78,50l-.12-.71a.29.29,0,0,0-.34-.24.29.29,0,0,0-.24.34l.21,1.23.05.33a.32.32,0,0,0,.14.21.28.28,0,0,0,.15,0h0L8.53,52l-1.16-.8A.3.3,0,0,0,7,51.3a.29.29,0,0,0,.08.41l1.39,1,0,0-.1.83a.3.3,0,0,0-.28.08.29.29,0,0,0,0,.42l.2.2L8.11,55.5a.3.3,0,0,0-.33.09l-1,1.21a.3.3,0,0,0,0,.42.26.26,0,0,0,.19.07.28.28,0,0,0,.22-.11l.82-1L7.79,58.1H7.72a.3.3,0,0,0-.15-.2.29.29,0,0,0-.4.12l-.09.16-.52.06-.23-2.66,1.15-.94a.3.3,0,0,0-.38-.46l-.83.68-.25-3,.4,1.32a.29.29,0,0,0,.28.21h.09A.31.31,0,0,0,7,53l-.45-1.52a.3.3,0,0,0-.37-.19.28.28,0,0,0-.18.14l-.35-4.16h0a.27.27,0,0,0,.17.06.28.28,0,0,0,.24-.13L7,45.91a.29.29,0,0,0-.48-.34l-.9,1.25-.12-1.48.32-.28a.29.29,0,0,0,0-.42.29.29,0,0,0-.41,0h0l-.13-1.52.52-.4a.3.3,0,0,0,0-.42.29.29,0,0,0-.41-.05l-.22.17-.09-1,.27.22a.26.26,0,0,0,.19.07.31.31,0,0,0,.23-.11.3.3,0,0,0,0-.41l-.72-.6-.15-1.75L5,38.9a.29.29,0,0,0,.25.15.3.3,0,0,0,.16,0,.29.29,0,0,0,.1-.4l-.7-1.15L4.59,35l.77,1.31a.29.29,0,0,0,.26.15.28.28,0,0,0,.15,0,.3.3,0,0,0,.1-.41l-.8-1.36a.29.29,0,0,0-.4-.11.38.38,0,0,0-.11.11l-.08-1,0,0,1.31-.89a.3.3,0,0,0,.08-.42.29.29,0,0,0-.41-.07L4.42,33l0-.66.82-.91a.3.3,0,0,0-.44-.4l-.45.5L4.07,28.8l.07,0,1.22-1A.3.3,0,0,0,5,27.28l-1,.81L4,27.35H4a.29.29,0,0,0,.28-.18l.62-1.46a.3.3,0,0,0-.55-.23l-.44,1.05-.41-4.87a.33.33,0,0,0,.11-.18l.29-1.55a.3.3,0,0,0-.24-.35.3.3,0,0,0-.33.17l-.08-.95.06-.07.82-1.36A.29.29,0,0,0,4,17a.3.3,0,0,0-.41.1l-.45.74L3,16a.27.27,0,0,0,.14-.07l1.23-1a.3.3,0,0,0,0-.42.29.29,0,0,0-.41,0l-1,.87-.06-.62a.25.25,0,0,0,.06-.15.28.28,0,0,0-.09-.23l-.07-.89,1.12-.27a.3.3,0,1,0-.14-.58l-1,.25-.18-2.05.13-.1.24,1.28a.3.3,0,0,0,.29.24h.06a.29.29,0,0,0,.23-.34l-.3-1.6L4.73,9a.33.33,0,0,0,.12,0h.06A.29.29,0,0,0,5.2,8.8l.06-.27,1.11-.91v0l-.1.07a.3.3,0,0,0-.07.42.35.35,0,0,0,.23.12l0,.33a.3.3,0,0,0-.31-.1.3.3,0,0,0-.2.37l.46,1.52a.29.29,0,0,0,.25.21l.11,1.07-.9.74a.29.29,0,0,0,0,.42.28.28,0,0,0,.23.11.26.26,0,0,0,.18-.07l.6-.49L7,13.74,6.75,14a.3.3,0,0,0,0,.42.32.32,0,0,0,.19.07l.09,0,.08.8-.59,1.08a.31.31,0,0,0,.12.41l.14,0a.28.28,0,0,0,.26-.15l.17-.32.19,1.88L6.2,17.88a.31.31,0,0,0-.37.21.3.3,0,0,0,.21.37l1.46.39,0,.37a.3.3,0,0,0-.12.33.29.29,0,0,0,.17.19l.41,4a.28.28,0,0,0,0,.09l.09.87-.09,0a.3.3,0,0,0,.11.58h0l.07.67-.78,1.3a.28.28,0,0,0,.1.4.27.27,0,0,0,.15,0A.27.27,0,0,0,8,27.59L8.32,27l.07.67H8.32a.3.3,0,0,0-.24.35l.21,1.23.05.33a.3.3,0,0,0,.27.25l.1,1-1.34-.93a.31.31,0,0,0-.42.08.29.29,0,0,0,.08.41l1.39,1a.26.26,0,0,0,.17,0,.34.34,0,0,0,.17,0l.13,1.33-.4-.4a.3.3,0,0,0-.42.42l.92.91.11,1.09-.7,1.78a.3.3,0,0,0,.17.38l.11,0A.3.3,0,0,0,9,36.62l.27-.69,0,.28.54,5.44Zm26.75-2.07-12.9.16-.23-2-.16-1.38-.09-.81-.07-.6-.59-5.19-.11-1L22,26.43l-.11-1-.16-1.39-.06-.57-.16-1.42-.17-1.49-.1-.88-.07-.6L21,17.83,21,17.24l-.06-.54-.07-.6-.07-.61-.08-.73L20.49,13h0l-.2-1.36h19Z"/><path class="cls-1" d="M5.52,20.63a.31.31,0,0,0,0,.42l1.23,1a.28.28,0,0,0,.19.07.3.3,0,0,0,.19-.53l-1.23-1A.29.29,0,0,0,5.52,20.63Z"/><path class="cls-1" d="M5.82,21.68a.29.29,0,0,0-.41,0L3.84,23a.31.31,0,0,0,0,.42.3.3,0,0,0,.23.11.32.32,0,0,0,.19-.07L5.79,22.1A.29.29,0,0,0,5.82,21.68Z"/><path class="cls-1" d="M6.05,24.25,7,23a.29.29,0,0,0-.48-.34L5.57,23.9a.28.28,0,0,0,.07.41.27.27,0,0,0,.17.06A.3.3,0,0,0,6.05,24.25Z"/><path class="cls-1" d="M7,20.42a.29.29,0,0,0,.28.21l.09,0a.29.29,0,0,0,.19-.37L6.93,18.3a.3.3,0,1,0-.56.19Z"/><path class="cls-1" d="M5.19,8.46a.3.3,0,1,0-.44-.4l-1,1.12a.3.3,0,0,0,0,.42.31.31,0,0,0,.2.07.31.31,0,0,0,.22-.09Z"/><path class="cls-1" d="M5.4,18.62a.26.26,0,0,0,.19.07.28.28,0,0,0,.23-.11.3.3,0,0,0,0-.41l-1.22-1a.3.3,0,0,0-.42,0,.29.29,0,0,0,0,.42Z"/><path class="cls-1" d="M4.67,11.56a.3.3,0,0,0-.11.41l.8,1.36a.29.29,0,0,0,.26.15.28.28,0,0,0,.15,0,.29.29,0,0,0,.1-.41l-.8-1.36A.29.29,0,0,0,4.67,11.56Z"/><path class="cls-1" d="M5.24,16.09a.29.29,0,0,0,.16,0,.31.31,0,0,0,.1-.41L4.48,14a.3.3,0,1,0-.51.31L5,16A.3.3,0,0,0,5.24,16.09Z"/><path class="cls-1" d="M4.13,20.94a.26.26,0,0,0,.18-.07L5.8,19.73a.3.3,0,0,0-.36-.47L4,20.4a.3.3,0,0,0-.06.42A.3.3,0,0,0,4.13,20.94Z"/><path class="cls-1" d="M6.46,26.69h0a.3.3,0,0,0,.28-.32l-.12-1.58a.31.31,0,0,0-.32-.28.3.3,0,0,0-.28.32l.12,1.58A.31.31,0,0,0,6.46,26.69Z"/><path class="cls-1" d="M5.82,9.79a.3.3,0,1,0-.33-.49l-1.31.89a.3.3,0,0,0-.08.42.31.31,0,0,0,.24.13.27.27,0,0,0,.17-.06Z"/><path class="cls-1" d="M8.24,43.89H8.3a.3.3,0,0,0,.29-.24l.29-1.56a.3.3,0,0,0-.24-.35A.29.29,0,0,0,8.3,42L8,43.54A.3.3,0,0,0,8.24,43.89Z"/><path class="cls-1" d="M7.17,43,5.94,42a.29.29,0,0,0-.42,0,.31.31,0,0,0,0,.42l1.23,1a.28.28,0,0,0,.19.07A.3.3,0,0,0,7.17,43Z"/><path class="cls-1" d="M9.15,38.57,7.62,39a.3.3,0,0,0-.2.37.31.31,0,0,0,.29.22l.08,0,1.52-.43a.31.31,0,0,0,.21-.37A.29.29,0,0,0,9.15,38.57Z"/><path class="cls-1" d="M7.55,47.52a.26.26,0,0,0,.15,0A.29.29,0,0,0,8,47.42l.82-1.36a.29.29,0,0,0-.1-.41.28.28,0,0,0-.4.1l-.82,1.36A.3.3,0,0,0,7.55,47.52Z"/><path class="cls-1" d="M6.56,39.5a.3.3,0,0,0-.19.38L7,41.82a.29.29,0,0,0,.28.2.15.15,0,0,0,.09,0,.29.29,0,0,0,.19-.37l-.64-1.94A.3.3,0,0,0,6.56,39.5Z"/><path class="cls-1" d="M6.79,34.26a.26.26,0,0,0,.19.07.27.27,0,0,0,.22-.1l1-1.21a.3.3,0,1,0-.45-.39l-1,1.21A.3.3,0,0,0,6.79,34.26Z"/><path class="cls-1" d="M8,35.55A.31.31,0,0,0,7.9,36l1,1.73a.27.27,0,0,0,.25.15.28.28,0,0,0,.15,0,.29.29,0,0,0,.11-.4l-1-1.74A.31.31,0,0,0,8,35.55Z"/><path class="cls-1" d="M7.58,38.69h.07a.31.31,0,0,0,.29-.22.29.29,0,0,0-.21-.36L6.2,37.71a.3.3,0,0,0-.37.21.29.29,0,0,0,.21.36Z"/><path class="cls-1" d="M7.17,35.07,6.56,36.2a.3.3,0,0,0,.12.4.43.43,0,0,0,.14,0,.29.29,0,0,0,.26-.16l.61-1.13a.3.3,0,0,0-.12-.4A.29.29,0,0,0,7.17,35.07Z"/><path class="cls-1" d="M6.25,32.69l1.23-1a.3.3,0,1,0-.38-.46l-1.22,1a.28.28,0,0,0,0,.41.28.28,0,0,0,.41,0Z"/><path class="cls-1" d="M6.42,30.22a.28.28,0,0,0,.28.21h.09A.3.3,0,0,0,7,30.05l-.45-1.52a.3.3,0,0,0-.37-.2.29.29,0,0,0-.2.37Z"/><path class="cls-1" d="M6.46,48.08h0a.3.3,0,0,0,.28-.32l-.12-1.58a.3.3,0,1,0-.6,0l.12,1.58A.31.31,0,0,0,6.46,48.08Z"/><path class="cls-1" d="M5.32,26.72a.28.28,0,0,0-.35.22l-.16.73-.19.82a.31.31,0,0,0,.23.36h.06a.29.29,0,0,0,.29-.23l.21-.95.14-.6A.3.3,0,0,0,5.32,26.72Z"/><path class="cls-1" d="M6.21,28a.3.3,0,0,0,.24.12A.41.41,0,0,0,6.63,28l1.2-.88a.28.28,0,0,0,.07-.41.31.31,0,0,0-.42-.07l-1.2.88A.29.29,0,0,0,6.21,28Z"/><path class="cls-1" d="M7.48,48.07,6.28,49a.29.29,0,0,0-.07.41.3.3,0,0,0,.24.12.31.31,0,0,0,.18,0l.51-.37h0l.69-.5a.3.3,0,0,0,.07-.42A.31.31,0,0,0,7.48,48.07Z"/></g></g></svg>