<svg xmlns="http://www.w3.org/2000/svg" viewBox="0 0 51.8 38.33"><defs><style>.cls-1{fill:#384fa0;}</style></defs><g id="Layer_2" data-name="Layer 2"><g id="Layer_1-2" data-name="Layer 1"><path class="cls-1" d="M38.34,0H13.47A13.51,13.51,0,0,0,0,13.47v7.78a13.46,13.46,0,0,0,5.07,10.5A8.44,8.44,0,0,1,2.5,37.47a.5.5,0,0,0,.36.85H3a100.2,100.2,0,0,0,9.46-3.63H38.33A13.51,13.51,0,0,0,51.8,21.22V13.47A13.51,13.51,0,0,0,38.34,0ZM21.11,23.37h-4.3V19H14.39v4.34h-4.3V11h4.3v4.57h2.42V11h4.3Zm11.34-9h-5v1.06h3.89v3.39H27.45V20h5v3.43h-9.3V11h9.3Zm8.84,5.1v3.85H37V19.48L33.46,11H38l1.17,3.65L40.38,11h4.54Z"/></g></g></svg>