<svg xmlns="http://www.w3.org/2000/svg" width="151.409" height="34" viewBox="0 0 151.409 34">
  <g id="Group_37" data-name="Group 37" transform="translate(151.409 1) rotate(90)">
    <path id="Path_12" data-name="Path 12" d="M0,20.587H2.81V7.605l6.152,5.91,6.152-5.91V20.587h2.81V2.955H16.034L8.962,9.979,1.938,2.955H0Zm25,.242a4.056,4.056,0,0,0,3-1.114v.872h2.664V10.512a5.047,5.047,0,0,0-5.329-5.28,5.24,5.24,0,0,0-5.425,5.183h2.567a2.658,2.658,0,0,1,2.761-2.81A2.737,2.737,0,0,1,28,10.512v.92H27.95a4.3,4.3,0,0,0-2.81-.969,5.252,5.252,0,0,0-5.329,5.183A4.933,4.933,0,0,0,25,20.83Zm.242-2.422a2.689,2.689,0,0,1-2.713-2.761,2.661,2.661,0,0,1,2.713-2.761,2.633,2.633,0,0,1,2.713,2.761A2.66,2.66,0,0,1,25.238,18.408Zm7.8,2.18H35.75V16.082l2.374-3.391,2.277,7.9h2.713L40.012,9.93l3.1-4.457H40.061L35.75,11.916V.242H33.037Zm16.325.242a5.419,5.419,0,0,0,5.425-5.28H52.074a2.66,2.66,0,0,1-2.713,2.761,2.689,2.689,0,0,1-2.713-2.761V14.29h8.138V10.512a5.126,5.126,0,0,0-5.425-5.28,5.419,5.419,0,0,0-5.425,5.28V15.55A5.126,5.126,0,0,0,49.361,20.83ZM46.7,11.771V10.512a2.689,2.689,0,1,1,5.377,0v1.259Zm9.494,8.816H58.9V10.512a2.661,2.661,0,0,1,2.713-2.761,2.633,2.633,0,0,1,2.713,2.761V20.587h2.713V10.512a5.047,5.047,0,0,0-5.329-5.28,5.4,5.4,0,0,0-5.522,5.28Zm11.577,0H78.135V18.214H70.918L77.845,7.751V5.474h-9.93V7.847h6.83L67.769,18.262ZM81.551,3.342a1.671,1.671,0,1,0-1.671-1.671A1.675,1.675,0,0,0,81.551,3.342ZM80.17,20.587h2.713L82.858,5.474H80.146Zm10.657.242a5.419,5.419,0,0,0,5.425-5.28H93.54a2.66,2.66,0,0,1-2.713,2.761,2.689,2.689,0,0,1-2.713-2.761V14.29h8.138V10.512a5.126,5.126,0,0,0-5.425-5.28,5.419,5.419,0,0,0-5.425,5.28V15.55A5.126,5.126,0,0,0,90.827,20.83Zm-2.664-9.058V10.512a2.689,2.689,0,1,1,5.377,0v1.259ZM98.5,15.55h2.81V2.955H98.5Zm1.4,5.28a1.671,1.671,0,1,0-1.671-1.671A1.675,1.675,0,0,0,99.91,20.83Z" transform="translate(3.67 101.581) rotate(-90)" fill="#fffded"/>
    <text id="HEY" transform="translate(24 150.409) rotate(-90)" fill="#fffded" stroke="#fffded" stroke-width="1" font-size="27" font-family="Filicudi-Solid, Filicudi" letter-spacing="-0.025em"><tspan x="0" y="0">HEY</tspan></text>
  </g>
</svg>
