<svg id="Group_28" data-name="Group 28" xmlns="http://www.w3.org/2000/svg" width="25.083" height="25" viewBox="0 0 25.083 25">
  <path id="Path_2" data-name="Path 2" d="M25,12.542v5.316a6.6,6.6,0,0,1-1.5,4.236,6.8,6.8,0,0,1-2.658,2.159,8.038,8.038,0,0,1-1.993.664,4.736,4.736,0,0,1-1.08.083H7.143a6.8,6.8,0,0,1-3.322-.831A7.324,7.324,0,0,1,.249,19.6,6.323,6.323,0,0,1,0,17.857V7.226A6.781,6.781,0,0,1,1.412,3.073,7.312,7.312,0,0,1,4.983.332,5.37,5.37,0,0,1,6.645,0H17.857a7.253,7.253,0,0,1,6.977,5.4,6.323,6.323,0,0,1,.249,1.744C25,8.97,25,10.714,25,12.542Zm-23.09,0v5.233A7.269,7.269,0,0,0,2.076,19.1a5.336,5.336,0,0,0,5.15,4.07H17.691a5.108,5.108,0,0,0,1.163-.083,4.728,4.728,0,0,0,2.99-1.827,5.225,5.225,0,0,0,1.246-3.405V7.475a4.736,4.736,0,0,0-.083-1.08,4.862,4.862,0,0,0-1.412-2.741,5.326,5.326,0,0,0-3.9-1.578H7.309a3.658,3.658,0,0,0-1.329.166A4.569,4.569,0,0,0,2.492,4.9,4.915,4.915,0,0,0,1.91,7.309Z" fill="#f5f5f5"/>
  <path id="Path_3" data-name="Path 3" d="M7,13.058a6.053,6.053,0,1,1,6.053,6.058A6.078,6.078,0,0,1,7,13.058Zm10.388,0A4.334,4.334,0,1,0,13.053,17.4,4.339,4.339,0,0,0,17.388,13.058Z" transform="translate(-0.512 -0.512)" fill="#f5f5f5"/>
  <path id="Path_4" data-name="Path 4" d="M23.675,4.6a1.576,1.576,0,1,1,0,3.151A1.585,1.585,0,0,1,22.1,6.083,1.487,1.487,0,0,1,23.675,4.6Z" transform="translate(-4.014 -0.836)" fill="#f5f5f5"/>
</svg>
