<?xml version="1.0" encoding="utf-8"?>
<!-- Generator: Adobe Illustrator 24.1.3, SVG Export Plug-In . SVG Version: 6.00 Build 0)  -->
<svg version="1.1" id="Group_28" xmlns="http://www.w3.org/2000/svg" xmlns:xlink="http://www.w3.org/1999/xlink" x="0px" y="0px"
	 viewBox="0 0 25.1 25" style="enable-background:new 0 0 25.1 25;" xml:space="preserve">
<style type="text/css">
	.st0{fill:#201335;}
</style>
<path id="Path_2" class="st0" d="M25,12.5v5.3c0,1.5-0.5,3-1.5,4.2c-0.7,0.9-1.6,1.7-2.7,2.2c-0.6,0.3-1.3,0.5-2,0.7
	C18.5,25,18.1,25,17.8,25H7.1c-1.2,0-2.3-0.3-3.3-0.8c-1.8-1-3.1-2.6-3.6-4.6C0.1,19,0,18.4,0,17.9V7.2c0-1.5,0.5-3,1.4-4.2
	C2.3,1.8,3.5,0.8,5,0.3C5.5,0.1,6.1,0,6.6,0h11.2c3.3,0,6.1,2.2,7,5.4C25,6,25.1,6.6,25.1,7.1C25,9,25,10.7,25,12.5z M1.9,12.5v5.2
	c0,0.4,0.1,0.9,0.2,1.3c0.6,2.4,2.7,4.1,5.1,4.1h10.5c0.4,0,0.8,0,1.2-0.1c1.2-0.2,2.3-0.9,3-1.8c0.8-0.9,1.3-2.2,1.2-3.4V7.5
	c0-0.4,0-0.7-0.1-1.1c-0.2-1-0.7-2-1.4-2.7c-1-1-2.4-1.6-3.9-1.6H7.3C6.9,2,6.4,2.1,6,2.2C4.4,2.5,3.1,3.5,2.5,4.9
	C2.1,5.6,1.9,6.5,1.9,7.3L1.9,12.5z"/>
<path id="Path_3" class="st0" d="M6.5,12.5c0-3.3,2.7-6.1,6.1-6c3.3,0,6.1,2.7,6,6.1c0,3.3-2.7,6-6.1,6C9.2,18.6,6.5,15.9,6.5,12.5z
	 M16.9,12.5c0-2.4-1.9-4.3-4.3-4.3s-4.3,1.9-4.3,4.3c0,2.4,1.9,4.3,4.3,4.3C14.9,16.9,16.9,14.9,16.9,12.5z"/>
<path id="Path_4" class="st0" d="M19.7,3.8c0.9,0,1.6,0.7,1.6,1.5c0,0.9-0.7,1.6-1.5,1.6c0,0-0.1,0-0.1,0c-0.9,0-1.6-0.7-1.6-1.6
	c0,0,0-0.1,0-0.1C18.1,4.4,18.8,3.8,19.7,3.8C19.6,3.8,19.6,3.8,19.7,3.8z"/>
</svg>
