<svg xmlns="http://www.w3.org/2000/svg" viewBox="0 0 121.81 38.32"><defs><style>.cls-1{fill:#fff;}</style></defs><g id="Layer_2" data-name="Layer 2"><g id="Layer_1-2" data-name="Layer 1"><path class="cls-1" d="M60.9,20.9c0,1.05.45,1.66,1.38,1.66A9.59,9.59,0,0,0,65.12,22V19l-2.68.25C61.33,19.37,60.9,19.9,60.9,20.9Z"/><path class="cls-1" d="M106.64,15.42c-1.55,0-2.42.85-2.43,3h4.71C108.92,16.22,108.23,15.42,106.64,15.42Z"/><path class="cls-1" d="M79.57,15.42c-1.54,0-2.42.85-2.43,3h4.71C81.85,16.22,81.16,15.42,79.57,15.42Z"/><path class="cls-1" d="M108.34,0H13.47A13.51,13.51,0,0,0,0,13.47v7.78a13.47,13.47,0,0,0,5.07,10.5A8.43,8.43,0,0,1,2.5,37.47a.5.5,0,0,0,.36.85.36.36,0,0,0,.14,0,98,98,0,0,0,9.46-3.63c.34,0,.67,0,1,0h94.87a13.51,13.51,0,0,0,13.47-13.47V13.47A13.51,13.51,0,0,0,108.34,0Zm4.81,11-.09,8.42h-1.25L111.72,11Zm-92,12.4h-4.3V19H14.39v4.34h-4.3V11h4.3v4.57h2.42V11h4.3Zm11.34-9h-5v1.06h3.89v3.39H27.45v1.11h5v3.43h-9.3V11h9.3Zm8.84,5.1v3.89H37V19.48L33.46,11H38l1.17,3.65L40.38,11h4.54Zm17.21,4H57.1V12.46h-.25L53.2,23.07H51.64L48,12.46h-.26V23.52h-1.4V11h2.53l3.55,10.61L56,11H58.5Zm9,.19A2.8,2.8,0,0,1,65.32,23a9.2,9.2,0,0,1-3.26.73c-1.65,0-2.56-.95-2.56-2.78s.91-2.5,2.78-2.68L65.12,18V17.2c0-1.27-.54-1.73-1.63-1.73-1.27,0-3.43.24-3.43.24l-.05-1a22.35,22.35,0,0,1,3.55-.39c2,0,2.92.94,2.92,2.92v4.64c0,.52.47.72,1,.8Zm6.64-.19-2.7-4.2L70,19.37v4.15H68.62v-13H70v7.69l1.42-.07L74,14.46h1.54l-3,4.17,3.08,4.89Zm9-4h-6c0,1.94.6,3,2.38,3,1.36,0,3.34-.16,3.34-.16l0,1.07a31.43,31.43,0,0,1-3.53.29c-2.7,0-3.59-1.58-3.59-4.66,0-3.45,1.48-4.77,3.79-4.77s3.64,1.27,3.64,4.24Zm8.51,4H90.31V18.77c0-2.39-.27-3.28-2-3.28a6.21,6.21,0,0,0-2.56.67v7.36H84.43V14.46h1.34v.63a6.94,6.94,0,0,1,2.82-.81c2.5,0,3.06,1.23,3.06,4.46Zm7.8-7.85-5.07,6.64h5.07v1.21H92.73V22.31l5.07-6.64H92.73V14.46h6.72Zm2.44,7.85h-1.36V14.46h1.36Zm0-11.11h-1.36V10.83h1.36Zm8.32,7.14h-6c0,1.94.6,3,2.38,3,1.36,0,3.34-.16,3.34-.16l0,1.07a31.43,31.43,0,0,1-3.53.29c-2.71,0-3.59-1.58-3.59-4.66,0-3.45,1.48-4.77,3.79-4.77s3.64,1.27,3.64,4.24Zm3,4H111.7v-2h1.49Z"/></g></g></svg>