<svg xmlns="http://www.w3.org/2000/svg" width="25.02" height="25" viewBox="0 0 25.02 25">
  <g id="logo" transform="translate(0 -0.2)">
    <g id="Group_27" data-name="Group 27" transform="translate(0 0.2)">
      <path id="Path_6" data-name="Path 6" d="M18.73.2H6.27A6.283,6.283,0,0,0,0,6.47V18.95A6.279,6.279,0,0,0,6.27,25.2H18.75a6.283,6.283,0,0,0,6.27-6.27V6.47A6.313,6.313,0,0,0,18.73.2ZM8.333,20.438H4.762V10.121H8.333ZM6.528,8.533A1.825,1.825,0,1,1,8.353,6.708,1.846,1.846,0,0,1,6.528,8.533Zm13.73,11.9h-3v-5c0-1.21-.159-2.758-1.806-2.758-1.687,0-1.964,1.31-1.964,2.679v5.079H10.516V10.121h2.778V11.51h.079A3.258,3.258,0,0,1,16.409,10.1c3.274,0,3.849,1.885,3.849,4.683v5.655Z" transform="translate(0 -0.2)" fill="#f5f5f5"/>
    </g>
  </g>
</svg>
