<svg xmlns="http://www.w3.org/2000/svg" viewBox="0 0 55.33 55.33"><defs><style>.cls-1{fill:#384da1;}.cls-2{fill:#5e73b7;}</style></defs><g id="Layer_2" data-name="Layer 2"><g id="Covers"><path class="cls-1" d="M27.58,13.62V25.8H24.39V19.57L21.68,24h-.9l-2.71-4.47V25.8H14.88V13.62H18l3.19,5.22,3.19-5.22Z"/><path class="cls-1" d="M34.09,22.2l-.89,1.24V25.8H30V13.59H33.2v4.79l3.28-4.76h3.87l-4.29,5.9,4.69,6.28H36.81Z"/><path class="cls-1" d="M24.86,30.14V42.33H21.7l-3.63-6v6H14.88V30.14h3.19l3.61,6v-6Z"/><path class="cls-1" d="M35.66,32.77l-4.54,6.54h4.54v3H27V39.7l4.54-6.54H27v-3h8.62Z"/><path class="cls-1" d="M41,30.14V42.33H37.84V30.14Z"/><path class="cls-1" d="M55.33,49.75H5.59V0H55.33ZM7.45,47.88h46v-46h-46Z"/><path class="cls-2" d="M49.75,55.33H0V5.59H49.75ZM1.86,53.47h46v-46h-46Z"/></g></g></svg>