<?xml version="1.0" encoding="utf-8"?>
<!-- Generator: Adobe Illustrator 24.0.0, SVG Export Plug-In . SVG Version: 6.00 Build 0)  -->
<svg version="1.1" id="Layer_1" xmlns="http://www.w3.org/2000/svg" xmlns:xlink="http://www.w3.org/1999/xlink" x="0px" y="0px"
	 viewBox="0 0 106.8 37.9" style="enable-background:new 0 0 106.8 37.9;" xml:space="preserve">
<style type="text/css">
	.st0{fill:#FF5A5F;}
</style>
<g id="Group_35" transform="translate(-67.407 -43.566)">
	<path id="Path_8" class="st0" d="M108.2,60h2v-9.1l4.3,4.1l4.3-4.1V60h2V47.6h-1.3l-5,4.9l-4.9-4.9h-1.4V60z M125.4,60.2
		c0.8,0,1.5-0.2,2.1-0.8V60h1.9v-3.5c0.1-2-1.5-3.6-3.5-3.7c-0.1,0-0.2,0-0.3,0c-2.1,0-3.8,1.6-3.8,3.7c-0.1,1.9,1.4,3.6,3.3,3.7
		C125.2,60.2,125.3,60.2,125.4,60.2z M125.6,58.4c-1,0-1.9-0.8-1.9-1.9c0,0,0,0,0-0.1c0-1,0.8-1.9,1.8-1.9c0,0,0.1,0,0.1,0
		c1,0,1.9,0.8,1.9,1.8c0,0,0,0.1,0,0.1c0,1-0.8,1.9-1.8,1.9C125.7,58.4,125.6,58.4,125.6,58.4z M130.8,60h1.9v-1.3l2.1-2.3l1.3,3.6
		h1.9l-1.8-5.1l1.8-2h-2.2l-3.1,3.3v-8.6h-1.9V60z M142.1,60.2c1,0,1.9-0.4,2.6-1.1l-1.2-1.2c-0.4,0.4-0.9,0.7-1.5,0.6
		c-0.9,0-1.7-0.6-1.9-1.4h5.8v-0.6c0.1-2-1.5-3.7-3.5-3.7c-0.1,0-0.2,0-0.3,0c-2.1,0-3.8,1.6-3.8,3.7c-0.1,2,1.5,3.6,3.5,3.7
		C141.9,60.2,142,60.2,142.1,60.2z M140.2,55.6c0.3-0.8,1-1.4,1.9-1.4c0.9,0,1.7,0.5,1.9,1.4H140.2z M146.6,60h1.9v-3.5
		c0-1,0.8-1.9,1.8-1.9c0,0,0.1,0,0.1,0c1,0,1.9,0.8,1.9,1.8c0,0,0,0.1,0,0.1V60h1.9v-3.5c0.1-2-1.5-3.6-3.4-3.7c-0.1,0-0.2,0-0.3,0
		c-2.1,0-3.8,1.6-3.8,3.7L146.6,60z M155.2,60h7.2v-1.6h-4.8l4.6-3.9v-1.5h-7v1.6h4.5l-4.6,3.9L155.2,60z M164.5,49.8
		c0.6,0,1.2-0.5,1.2-1.2c0-0.6-0.5-1.2-1.1-1.2c0,0,0,0,0,0c-0.6,0-1.2,0.5-1.2,1.2C163.3,49.3,163.9,49.8,164.5,49.8z M163.5,60
		h1.9v-7.1h-1.9V60z M170.4,60.2c1,0,1.9-0.4,2.6-1.1l-1.2-1.2c-0.4,0.4-0.9,0.7-1.5,0.6c-0.9,0-1.7-0.6-1.9-1.4h5.7v-0.6
		c0.1-2-1.5-3.7-3.5-3.7c-0.1,0-0.2,0-0.3,0c-2.1,0-3.8,1.6-3.8,3.7c-0.1,2,1.5,3.6,3.5,3.7C170.1,60.2,170.3,60.2,170.4,60.2z
		 M168.5,55.6c0.3-0.8,1-1.4,1.9-1.4c0.9,0,1.7,0.5,1.9,1.4H168.5z M108.2,77h5.4c3.4,0,6.3-2.7,6.3-6.2c0.1-3.3-2.5-6.1-5.9-6.2
		c-0.1,0-0.3,0-0.4,0h-5.4V77z M110.2,75.2v-8.8h3.4c2.4,0,4.3,1.9,4.3,4.3c0,0.1,0,0.1,0,0.2c0.1,2.4-1.8,4.3-4.1,4.4
		c-0.1,0-0.1,0-0.2,0H110.2z M124.5,77.2c1,0,1.9-0.4,2.6-1.1l-1.2-1.2c-0.4,0.4-0.9,0.7-1.5,0.6c-0.9,0-1.7-0.6-1.9-1.4h5.7v-0.6
		c0.1-2-1.5-3.7-3.5-3.7c-0.1,0-0.2,0-0.3,0c-2.1,0-3.8,1.6-3.8,3.7c-0.1,2,1.5,3.6,3.5,3.7C124.3,77.2,124.4,77.2,124.5,77.2z
		 M122.6,72.6c0.3-0.8,1-1.4,1.9-1.4c0.9,0,1.7,0.5,1.9,1.4H122.6z M129.2,77h4.9c1.2,0,2.1-1,2.2-2.2c0-1.2-0.9-2.2-2.1-2.2
		c0,0,0,0-0.1,0h-2.8c-0.3,0-0.6-0.2-0.6-0.5c0,0,0,0,0-0.1c0-0.3,0.3-0.6,0.6-0.5h4v-1.6h-4.2c-1.2,0-2.2,1-2.2,2.2
		c0,1.2,1,2.2,2.2,2.2c0,0,0,0,0,0h2.8c0.3,0,0.6,0.2,0.6,0.5c0,0,0,0,0,0c0,0.3-0.2,0.6-0.5,0.6c0,0,0,0-0.1,0h-4.7V77z
		 M138.1,66.8c0.6,0,1.2-0.5,1.2-1.2c0-0.6-0.5-1.2-1.1-1.2c0,0,0,0,0,0c-0.6,0-1.2,0.5-1.2,1.2C136.9,66.3,137.5,66.8,138.1,66.8z
		 M137.1,77h1.9v-7.1h-1.9V77z M144.2,80.7c2,0.1,3.7-1.5,3.8-3.6c0,0,0-0.1,0-0.1v-3.5c0.1-2-1.5-3.6-3.5-3.7c-0.1,0-0.2,0-0.3,0
		c-2.1,0-3.8,1.6-3.8,3.7c-0.1,1.9,1.4,3.6,3.3,3.7c0.1,0,0.2,0,0.4,0c0.8,0,1.5-0.2,2.1-0.8V77c0.1,1.1-0.7,2-1.8,2
		c0,0-0.1,0-0.1,0c-1,0-1.9-0.8-1.9-1.8c0-0.1,0-0.1,0-0.2h-1.8c-0.1,1.9,1.3,3.5,3.3,3.6C143.9,80.7,144,80.7,144.2,80.7z
		 M144.2,75.4c-1,0-1.9-0.8-1.9-1.9c0,0,0,0,0-0.1c0-1,0.8-1.9,1.8-1.9c0,0,0.1,0,0.1,0c1,0,1.9,0.8,1.9,1.8c0,0,0,0.1,0,0.1
		C146.1,74.5,145.3,75.4,144.2,75.4C144.2,75.4,144.2,75.4,144.2,75.4L144.2,75.4z M149,77h1.9v-3.5c0-1,0.8-1.9,1.8-1.9
		c0,0,0.1,0,0.1,0c1,0,1.9,0.8,1.9,1.8c0,0,0,0.1,0,0.1V77h1.9v-3.5c0.1-2-1.5-3.6-3.4-3.7c-0.1,0-0.2,0-0.3,0
		c-2.1,0-3.8,1.6-3.8,3.7L149,77z"/>
	<path id="Union_1" class="st0" d="M82.2,81.5h-0.2c-1.3,0-2.5-0.8-3.2-1.9L67.9,60.8c-0.7-1.2-0.7-2.6-0.1-3.8c0.6-1.2,1.9-2,3.2-2
		c1.7-2.5,6.1-6.9,14.8-5.2c2.5,0.6,5.1,0.1,7.1-1.5c0.9-0.7,1.6-1.7,2.1-2.7c0.5-1,1.4-1.8,2.5-2c0.6-0.2,1.3,0,1.8,0.4
		c1.5,1.1,0.7,4.5-0.1,6.9c1.2,0.8,1.8,2.3,1.3,3.7c-0.6,1.8-1.5,3.4-2.6,4.9c0.8,0.8,1.1,2,0.7,3.1c-0.1,0.4-3,8.7-10.3,8.7h-0.4
		c-0.1,0-0.2,0-0.4,0c-1-0.2-2.1,0-3,0.5c-0.2,0.2-0.4,0.4-0.4,0.7c0,0.2-0.1,0.4-0.1,0.6v0.2l1.3,2.3c0.7,1.2,0.7,2.7,0,3.9
		C84.9,80.8,83.6,81.5,82.2,81.5L82.2,81.5z M70.4,58.5c-0.4,0.3-0.6,0.8-0.3,1.2l11.1,18.6c0.1,0.2,0.3,0.4,0.6,0.4
		c0.1,0,0.1,0,0.2,0c0.4,0,0.8-0.3,0.9-0.7l0,0c0.1-0.2,0-0.5-0.1-0.7L71.7,58.8c-0.2-0.3-0.5-0.4-0.8-0.4
		C70.7,58.4,70.6,58.4,70.4,58.5L70.4,58.5z M79.3,69C79.3,69,79.3,69,79.3,69l1.7,3c0,0,0.1,0.1,0.1,0.1c0,0,0,0,0,0
		c0.1,0,0.1-0.1,0.1-0.1c0.1-1,0.6-2,1.4-2.7c1.2-1,2.9-1.5,5.2-1.3c0.1,0,0.2,0,0.2,0c5.4,0.2,7.7-6.6,7.8-6.6l0,0
		c0-0.1,0-0.1-0.1-0.2c0,0,0,0,0,0c-0.1,0-0.1,0-0.2,0.1c0,0,0,0,0,0c-0.4,1-1,1.8-1.8,2.5c-1.7,1.6-4.1,2.2-6.4,1.6
		c-0.7-0.1-1.3-0.2-2-0.2C82.8,65.1,80.4,66.6,79.3,69L79.3,69z M76.2,63.7c0,0,0,0.1,0,0.1l2.2,3.8c0,0,0.1,0.1,0.1,0.1h0
		c0.1,0,0.1-0.1,0.1-0.1c0.2-1.4,0.8-2.6,1.9-3.6c1.5-1.3,3.8-1.9,6.8-1.7c7.3,0.6,10.5-8.6,10.5-8.7h0c0-0.1,0-0.1-0.1-0.2
		c-0.1,0-0.2,0-0.2,0.1c-0.6,1.3-1.4,2.4-2.4,3.3C93,59,89.8,59.8,86.9,59c-0.9-0.2-1.8-0.3-2.6-0.3C80.8,58.6,77.6,60.6,76.2,63.7
		L76.2,63.7z M72.9,57.9c0,0.1,0,0.1,0,0.2l2.6,4.2c0,0,0.1,0.1,0.1,0.1c0,0,0,0,0,0c0.1,0,0.1-0.1,0.1-0.2c0.2-1.5,0.9-2.8,2-3.8
		c1.8-1.6,4.5-2.2,8.1-2l0.4,0c8.3,0.3,11.9-9.5,11.9-9.6l0,0c0-0.1,0-0.2-0.1-0.2c-0.1,0-0.2,0-0.2,0.1c0,0,0,0,0,0
		c0,0.1-3.2,7.8-12.6,6c-1-0.2-2.1-0.3-3.1-0.3C75.1,52.4,72.9,57.8,72.9,57.9L72.9,57.9z M140.4,77.1h1.8c-0.1,1,0.7,1.9,1.8,2
		c0.1,0,0.1,0,0.2,0c1.1,0,1.9-0.8,1.9-1.9c0,0,0-0.1,0-0.1v-0.6c-0.6,0.5-1.3,0.8-2.1,0.8c-1.9,0.1-3.6-1.4-3.6-3.4
		c0-0.1,0-0.2,0-0.4c0.1-2.1,1.7-3.7,3.8-3.7c2-0.1,3.7,1.4,3.8,3.4c0,0.1,0,0.2,0,0.3V77c0,2-1.6,3.7-3.7,3.7c0,0-0.1,0-0.1,0
		c-1.9,0.2-3.6-1.3-3.7-3.2C140.4,77.4,140.4,77.2,140.4,77.1L140.4,77.1z M142.3,73.5c0,1,0.8,1.9,1.8,1.9c0,0,0,0,0.1,0
		c1,0,1.9-0.8,1.9-1.8c0,0,0-0.1,0-0.1c0-1-0.7-1.9-1.8-1.9c0,0-0.1,0-0.1,0c-1,0-1.9,0.8-1.9,1.8C142.3,73.4,142.3,73.4,142.3,73.5
		L142.3,73.5z M120.7,73.5c0.1-2.1,1.7-3.7,3.8-3.7c2-0.1,3.7,1.4,3.8,3.4c0,0.1,0,0.2,0,0.3v0.6h-5.7c0.2,0.9,1,1.5,1.9,1.4
		c0.6,0,1.1-0.2,1.5-0.6l1.2,1.2c-0.7,0.7-1.6,1.1-2.6,1.1c-2,0.1-3.7-1.4-3.8-3.4C120.7,73.7,120.7,73.6,120.7,73.5L120.7,73.5z
		 M122.6,72.6h3.8c-0.3-0.8-1.1-1.4-1.9-1.4C123.6,71.3,122.8,71.8,122.6,72.6L122.6,72.6z M154.7,77v-3.5c0-1-0.7-1.9-1.8-1.9
		c0,0-0.1,0-0.1,0c-1,0-1.9,0.8-1.9,1.8c0,0,0,0.1,0,0.1V77H149v-3.5c0-2.1,1.8-3.7,3.8-3.7c2-0.1,3.7,1.4,3.8,3.4
		c0,0.1,0,0.2,0,0.3V77H154.7z M137.1,77v-7.1h1.9V77H137.1z M129.1,77v-1.6h4.7c0.3,0,0.6-0.2,0.6-0.5c0,0,0,0,0-0.1
		c0-0.3-0.2-0.5-0.5-0.5c0,0,0,0,0,0h-2.8c-1.2,0-2.2-1-2.2-2.2c0,0,0,0,0,0c0-1.2,1-2.2,2.2-2.2h4.2v1.6h-4c-0.3,0-0.6,0.2-0.6,0.5
		c0,0.3,0.2,0.6,0.5,0.6c0,0,0,0,0.1,0h2.8c1.2,0,2.2,0.9,2.2,2.1c0,0,0,0,0,0.1c0,1.2-1,2.1-2.2,2.2H129.1z M108.1,77V64.6h5.4
		c3.3-0.1,6.1,2.4,6.3,5.8c0,0.1,0,0.3,0,0.4c0,3.4-2.8,6.2-6.3,6.2H108.1z M110.2,75.2h3.4c2.4,0,4.3-1.9,4.3-4.3
		c0-0.1,0-0.1,0-0.2c0.1-2.4-1.8-4.3-4.1-4.4c-0.1,0-0.1,0-0.2,0h-3.4V75.2z M136.9,65.6c0-0.6,0.5-1.2,1.2-1.2
		c0.6,0,1.2,0.5,1.2,1.1c0,0,0,0,0,0c0,0.6-0.5,1.2-1.2,1.2C137.5,66.8,136.9,66.3,136.9,65.6L136.9,65.6z M166.5,56.5
		c0.1-2.1,1.7-3.7,3.8-3.7c2-0.1,3.7,1.4,3.8,3.4c0,0.1,0,0.2,0,0.3v0.6h-5.7c0.2,0.9,1,1.5,1.9,1.4c0.6,0,1.1-0.2,1.5-0.6l1.2,1.2
		c-0.7,0.7-1.6,1.1-2.6,1.1c-2,0.1-3.7-1.4-3.8-3.4C166.5,56.7,166.5,56.6,166.5,56.5L166.5,56.5z M168.4,55.7h3.8
		c-0.3-0.8-1.1-1.4-1.9-1.4C169.5,54.3,168.7,54.8,168.4,55.7L168.4,55.7z M138.3,56.5c0.1-2.1,1.7-3.7,3.8-3.7
		c2-0.1,3.7,1.4,3.8,3.4c0,0.1,0,0.2,0,0.3v0.6h-5.7c0.2,0.9,1,1.5,1.9,1.4c0.6,0,1.1-0.2,1.5-0.6l1.2,1.2c-0.7,0.7-1.6,1.1-2.6,1.1
		c-2,0.1-3.7-1.4-3.8-3.4C138.3,56.7,138.3,56.6,138.3,56.5L138.3,56.5z M140.2,55.7h3.8c-0.3-0.8-1.1-1.4-1.9-1.4
		C141.2,54.3,140.4,54.8,140.2,55.7L140.2,55.7z M121.8,56.5c0.1-2.1,1.7-3.7,3.8-3.7c2-0.1,3.7,1.4,3.8,3.4c0,0.1,0,0.2,0,0.3V60
		h-1.9v-0.6c-0.6,0.5-1.3,0.8-2.1,0.8c-1.9,0.1-3.6-1.4-3.6-3.3C121.8,56.7,121.8,56.6,121.8,56.5L121.8,56.5z M123.7,56.5
		c0,1,0.8,1.9,1.8,1.9c0,0,0,0,0.1,0c1,0,1.9-0.8,1.9-1.8c0,0,0-0.1,0-0.1c0-1-0.7-1.9-1.8-1.9c0,0-0.1,0-0.1,0
		C124.5,54.5,123.7,55.4,123.7,56.5C123.7,56.4,123.7,56.4,123.7,56.5L123.7,56.5z M163.5,60v-7.1h1.9V60H163.5z M155.2,60v-1.6
		l4.6-3.9h-4.5v-1.6h7v1.5l-4.6,3.9h4.8V60L155.2,60z M152.2,60v-3.5c0-1-0.7-1.9-1.8-1.9c0,0-0.1,0-0.1,0c-1,0-1.9,0.8-1.9,1.8
		c0,0,0,0.1,0,0.1V60h-1.9v-3.5c0-2.1,1.8-3.7,3.8-3.7c2-0.1,3.7,1.4,3.8,3.4c0,0.1,0,0.2,0,0.4V60H152.2z M136.1,60l-1.3-3.6
		l-2.1,2.3V60h-1.9V47.6h1.9v8.6l3.1-3.3h2.2l-1.8,2L138,60L136.1,60z M118.7,60v-9.1l-4.3,4.1l-4.3-4.1V60h-2V47.6h1.4l4.9,4.9
		l5-4.9h1.3V60H118.7z M163.3,48.6c0-0.6,0.5-1.2,1.2-1.2c0.6,0,1.2,0.5,1.2,1.1c0,0,0,0,0,0c0,0.6-0.5,1.2-1.2,1.2
		C163.8,49.8,163.3,49.3,163.3,48.6L163.3,48.6z"/>
</g>
</svg>
