<svg xmlns="http://www.w3.org/2000/svg" viewBox="0 0 209.3 65.53"><defs><style>.cls-1,.cls-2{fill:#231f20;}.cls-2{stroke:#3c53a4;stroke-miterlimit:10;stroke-width:0.09px;}</style></defs><title>Asset 41</title><g id="Layer_2" data-name="Layer 2"><g id="Layer_1-2" data-name="Layer 1"><path class="cls-1" d="M75.93,27.71H68.6L68,29.85H61.88L68.51,7.16h7.55l6.59,22.69H76.5Zm-1.4-5.19L72.27,13.8,70,22.52Z"/><path class="cls-1" d="M84.66,18.68c0-6.76,4.89-11.82,11.3-11.82a12.14,12.14,0,0,1,6.24,1.61l-3.1,5a5.61,5.61,0,0,0-2.83-.75c-3.36,0-5.5,2.62-5.5,5.94s2.18,5.67,5.41,5.67a5.91,5.91,0,0,0,3.31-1l3.1,4.89a11.76,11.76,0,0,1-6.59,2C89.24,30.15,84.66,25.4,84.66,18.68Z"/><path class="cls-1" d="M120.22,12.84h-5.06v17h-5.93v-17h-5.06V7.16h16Z"/><path class="cls-1" d="M129.44,7.16V29.85H123.5V7.16Z"/><path class="cls-1" d="M152.43,7.16,145.8,29.85h-7.54L131.63,7.16h6.19L142.05,23l4.19-15.79Z"/><path class="cls-1" d="M165,27.71h-7.33l-.57,2.14H151l6.63-22.69h7.55l6.58,22.69h-6.15Zm-1.4-5.19-2.27-8.72L159,22.52Z"/><path class="cls-1" d="M190,12.84H184.9v17H179v-17h-5.06V7.16H190Z"/><path class="cls-1" d="M199.18,12.79v3h7.59v5.32h-7.59v3.1H209.3v5.63H193.25V7.16H209.3v5.63Z"/><path class="cls-1" d="M67.05,43.34a13,13,0,0,0-2.31,2.33L61.2,42.82a20.41,20.41,0,0,1,1.72-2,9.77,9.77,0,0,1,1.87-1.5A8.21,8.21,0,0,1,67,38.34,11,11,0,0,1,69.76,38a9.92,9.92,0,0,1,3.29.51A7.23,7.23,0,0,1,75.55,40a6.06,6.06,0,0,1,1.57,2.25,7.54,7.54,0,0,1,.54,2.91,8.2,8.2,0,0,1-.37,2.58,8.33,8.33,0,0,1-1.12,2.15,12,12,0,0,1-1.88,2c-.77.67-1.66,1.4-2.66,2.18L67.89,57h10v4.36h-17v-4l7.64-6.25q1.08-.89,1.83-1.59a10.36,10.36,0,0,0,1.23-1.34,4.61,4.61,0,0,0,.69-1.25,4,4,0,0,0,.21-1.32,2.8,2.8,0,0,0-.85-2.23,3.25,3.25,0,0,0-2.23-.75A4,4,0,0,0,67.05,43.34Z"/><path class="cls-1" d="M100.34,54.49a11.78,11.78,0,0,1-2.08,3.77A9.82,9.82,0,0,1,95,60.79a10,10,0,0,1-8.37,0,9.34,9.34,0,0,1-3.21-2.51,11.53,11.53,0,0,1-2-3.75,15.33,15.33,0,0,1,0-9.35,11.54,11.54,0,0,1,2.08-3.78,9.72,9.72,0,0,1,3.23-2.53,10,10,0,0,1,8.36,0,9.24,9.24,0,0,1,3.21,2.5,11.84,11.84,0,0,1,2.06,3.77,14.72,14.72,0,0,1,.72,4.66A14.5,14.5,0,0,1,100.34,54.49ZM95.53,47a7.75,7.75,0,0,0-1-2.33,5,5,0,0,0-1.59-1.54,4,4,0,0,0-2.09-.56,4,4,0,0,0-2.06.54,4.9,4.9,0,0,0-1.57,1.51,7.38,7.38,0,0,0-1,2.31,11.75,11.75,0,0,0-.34,2.92,11.28,11.28,0,0,0,.36,2.92,7.76,7.76,0,0,0,1,2.33,5.06,5.06,0,0,0,1.59,1.54,4.19,4.19,0,0,0,4.15,0,4.86,4.86,0,0,0,1.57-1.53,7.48,7.48,0,0,0,1-2.31,11.54,11.54,0,0,0,.34-2.9A11.28,11.28,0,0,0,95.53,47Z"/><path class="cls-1" d="M109.78,43.34a13,13,0,0,0-2.31,2.33l-3.54-2.85a20.41,20.41,0,0,1,1.72-2,9.77,9.77,0,0,1,1.87-1.5,8.07,8.07,0,0,1,2.21-.93,11,11,0,0,1,2.76-.31,9.92,9.92,0,0,1,3.29.51A7.09,7.09,0,0,1,118.27,40a6.08,6.08,0,0,1,1.58,2.25,7.54,7.54,0,0,1,.54,2.91,8.19,8.19,0,0,1-.38,2.58,8,8,0,0,1-1.11,2.15,11.67,11.67,0,0,1-1.89,2c-.76.67-1.65,1.4-2.65,2.18L110.62,57h10v4.36h-17v-4l7.64-6.25c.73-.59,1.34-1.12,1.84-1.59a11.13,11.13,0,0,0,1.23-1.34,4.61,4.61,0,0,0,.69-1.25,4,4,0,0,0,.21-1.32,2.8,2.8,0,0,0-.85-2.23,3.25,3.25,0,0,0-2.23-.75A3.94,3.94,0,0,0,109.78,43.34Z"/><path class="cls-1" d="M143.07,54.49A11.8,11.8,0,0,1,141,58.26a9.62,9.62,0,0,1-3.23,2.53,9.43,9.43,0,0,1-4.18.92,9.59,9.59,0,0,1-4.18-.91,9.16,9.16,0,0,1-3.21-2.51,11.53,11.53,0,0,1-2.05-3.75,15.44,15.44,0,0,1,0-9.35,11.74,11.74,0,0,1,2.09-3.78,9.62,9.62,0,0,1,3.23-2.53,10,10,0,0,1,8.36,0,9.24,9.24,0,0,1,3.21,2.5,11.63,11.63,0,0,1,2.05,3.77,14.72,14.72,0,0,1,.72,4.66A14.5,14.5,0,0,1,143.07,54.49ZM138.26,47a8,8,0,0,0-1-2.33,5,5,0,0,0-1.59-1.54,4,4,0,0,0-2.09-.56,4,4,0,0,0-2.06.54,4.93,4.93,0,0,0-1.58,1.51,7.61,7.61,0,0,0-1,2.31,11.75,11.75,0,0,0-.34,2.92,11.28,11.28,0,0,0,.36,2.92,7.76,7.76,0,0,0,1,2.33,4.86,4.86,0,0,0,1.59,1.54,4.17,4.17,0,0,0,4.14,0,4.79,4.79,0,0,0,1.58-1.53,7.48,7.48,0,0,0,1-2.31,11.54,11.54,0,0,0,.34-2.9A11.28,11.28,0,0,0,138.26,47Z"/><path class="cls-2" d="M51.54,7,49.16.05,25.25,3l-.88.11-2.71.33-.8.09-.9.11-.64.08-.85.1-.61.08-2.77.34-.35,0-.28,0-5,.61L8.89,5l-1.81.22-.51.07H6.43L3.29,7.81l-.56.45L.05,10.44,2.29,37l0,.49.06.74.06.64.15,1.8.09,1.1.16,1.86,0,.28.24,2.81.06.66.07.87,0,.64.15,1.72.05.62L4,57.54l0,.38.12,1.51.06.62.11,1.36.07.76,0,.33.07.79.06.65.13,1.54,1.65-.19.58-.07,2.53-.3H26.55V53.61h12.5V64.92H49.16l3.6-54.35Zm-41,38.36-1-.85a.32.32,0,0,0-.4.5l1.32,1.08,0,0-.08.7-.09,0a.32.32,0,0,0-.19.41l.17.45L10.05,49l-1.41.56a.31.31,0,0,0-.18.41.32.32,0,0,0,.3.21.2.2,0,0,0,.11,0L10,49.73l-.14,1.16-.35,2.82-.13-.77A.32.32,0,0,0,9,52.68a.32.32,0,0,0-.26.37l.23,1.33.06.35a.27.27,0,0,0,.15.22.3.3,0,0,0,.16,0h0l-.1.89L8,55a.31.31,0,0,0-.44.09.32.32,0,0,0,.08.44l1.49,1,0,0L9,57.49a.3.3,0,0,0-.3.08.31.31,0,0,0,0,.45l.21.21-.17,1.39a.31.31,0,0,0-.36.09L7.29,61a.32.32,0,0,0,0,.45.31.31,0,0,0,.2.07.34.34,0,0,0,.25-.11l.87-1-.24,2H8.33a.32.32,0,0,0-.59-.08l-.09.16-.57.07-.24-2.85,1.23-1a.31.31,0,0,0,0-.44.32.32,0,0,0-.45,0l-.89.73L6.5,55.7l.43,1.42a.31.31,0,0,0,.31.22h.09a.32.32,0,0,0,.21-.4L7.05,55.3a.32.32,0,0,0-.4-.21.27.27,0,0,0-.18.15l-.38-4.46h0a.3.3,0,0,0,.18.06.33.33,0,0,0,.26-.13l1-1.39A.32.32,0,0,0,7,49l-1,1.35-.14-1.6.35-.29a.32.32,0,1,0-.41-.49h0l-.14-1.63.56-.43a.32.32,0,0,0,.06-.44.32.32,0,0,0-.45-.06l-.23.18-.1-1.1.29.23a.31.31,0,0,0,.45,0,.33.33,0,0,0,0-.45l-.77-.63-.16-1.89.08.14a.32.32,0,0,0,.27.15.33.33,0,0,0,.17,0A.32.32,0,0,0,6,41.47L5.2,40.24,5,37.59,5.8,39a.31.31,0,0,0,.27.15.35.35,0,0,0,.17,0,.32.32,0,0,0,.11-.44l-.86-1.46a.32.32,0,0,0-.44-.11l-.11.11-.09-1,0,0,1.41-1a.32.32,0,0,0,.08-.44.31.31,0,0,0-.44-.08l-1.15.78-.06-.71.88-1a.32.32,0,0,0-.47-.43l-.48.53L4.41,31l.08,0L5.8,29.82a.32.32,0,0,0-.41-.49l-1,.86-.07-.79h0a.31.31,0,0,0,.29-.19l.67-1.56a.32.32,0,0,0-.58-.26l-.48,1.13L3.77,23.3a.29.29,0,0,0,.11-.19l.32-1.68A.32.32,0,0,0,4,21.06a.32.32,0,0,0-.36.19l-.08-1a.18.18,0,0,0,.05-.07l.89-1.45a.32.32,0,0,0-.55-.34l-.48.8-.17-2a.51.51,0,0,0,.15-.07L4.71,16a.32.32,0,0,0,0-.45.31.31,0,0,0-.45,0l-1.11.92-.06-.66a.28.28,0,0,0,.06-.16.3.3,0,0,0-.09-.24l-.08-1,1.2-.29a.32.32,0,0,0-.15-.62L3,13.79l-.18-2.2.13-.11.26,1.37a.32.32,0,0,0,.31.26h.06a.32.32,0,0,0,.26-.37L3.47,11,5.12,9.67a.31.31,0,0,0,.13.06h.07a.32.32,0,0,0,.31-.25l.06-.29,1.2-1v0l-.11.08a.32.32,0,0,0-.07.44A.31.31,0,0,0,7,8.92l0,.36a.33.33,0,0,0-.34-.11.32.32,0,0,0-.21.4l.49,1.63a.32.32,0,0,0,.28.23l.11,1.14-1,.8a.33.33,0,0,0,0,.45.3.3,0,0,0,.25.12.32.32,0,0,0,.2-.08l.64-.53.15,1.46-.26.3a.33.33,0,0,0,.24.53l.1,0,.08.85-.62,1.17a.31.31,0,0,0,.13.43.28.28,0,0,0,.15,0,.32.32,0,0,0,.28-.17l.18-.33.2,2L6.7,19.24a.32.32,0,0,0-.39.23.31.31,0,0,0,.22.39l1.57.42,0,.4A.31.31,0,0,0,8,21a.29.29,0,0,0,.19.2l.43,4.32a.28.28,0,0,0,0,.09l.1.94-.1,0a.32.32,0,0,0-.18.42.33.33,0,0,0,.3.2h0l.07.72L8,29.33a.31.31,0,0,0,.11.44.3.3,0,0,0,.16.05.32.32,0,0,0,.27-.16L9,29l.07.73a.11.11,0,0,0-.08,0,.32.32,0,0,0-.26.37l.23,1.32.06.36a.31.31,0,0,0,.29.26l.1,1L8,32.07a.31.31,0,0,0-.44.08.32.32,0,0,0,.08.44l1.49,1a.32.32,0,0,0,.18.06.34.34,0,0,0,.19-.07L9.59,35l-.43-.42a.32.32,0,0,0-.45.45l1,1,.12,1.17-.74,1.91a.31.31,0,0,0,.18.41.2.2,0,0,0,.11,0,.31.31,0,0,0,.3-.2l.29-.74,0,.3.59,5.84ZM39.2,43.13l-13.84.17-.24-2.14L25,39.68l-.1-.87-.07-.64-.64-5.57-.11-1-.36-3.14-.12-1-.17-1.49-.07-.62-.17-1.51L23,22.16l-.11-.95-.07-.65-.16-1.37-.07-.64L22.48,18l-.07-.65-.08-.65-.08-.78L22,14h0l-.22-1.46H42.24Z"/><path class="cls-2" d="M6,23.87a.32.32,0,0,0,0,.45L7.34,25.4a.31.31,0,0,0,.2.07.32.32,0,0,0,.2-.56L6.42,23.82A.32.32,0,0,0,6,23.87Z"/><path class="cls-2" d="M6.3,25a.32.32,0,0,0-.45,0L4.17,26.4a.32.32,0,0,0,.21.56.34.34,0,0,0,.21-.08l1.67-1.43A.32.32,0,0,0,6.3,25Z"/><path class="cls-2" d="M6.54,27.75l1-1.39a.32.32,0,0,0-.07-.44A.33.33,0,0,0,7,26L6,27.38a.32.32,0,0,0,.08.45.29.29,0,0,0,.18.05A.3.3,0,0,0,6.54,27.75Z"/><path class="cls-2" d="M7.56,23.65a.32.32,0,0,0,.31.22.2.2,0,0,0,.1,0,.31.31,0,0,0,.2-.4l-.68-2.08a.33.33,0,0,0-.41-.2.32.32,0,0,0-.2.4Z"/><path class="cls-2" d="M5.61,10.81a.32.32,0,1,0-.47-.43l-1.08,1.2a.32.32,0,0,0,0,.45.3.3,0,0,0,.22.08.3.3,0,0,0,.23-.1Z"/><path class="cls-2" d="M5.84,21.72a.31.31,0,0,0,.2.07.34.34,0,0,0,.25-.11.33.33,0,0,0,0-.45L4.94,20.14a.32.32,0,0,0-.45,0,.31.31,0,0,0,0,.45Z"/><path class="cls-2" d="M5.05,14.14a.32.32,0,0,0-.11.44L5.8,16a.32.32,0,0,0,.27.16.37.37,0,0,0,.17-.05.31.31,0,0,0,.11-.43l-.86-1.46A.32.32,0,0,0,5.05,14.14Z"/><path class="cls-2" d="M5.67,19A.34.34,0,0,0,5.84,19,.32.32,0,0,0,6,18.51l-1.1-1.8a.32.32,0,1,0-.54.33l1.09,1.8A.33.33,0,0,0,5.67,19Z"/><path class="cls-2" d="M4.48,24.2a.28.28,0,0,0,.19-.07l1.6-1.22a.33.33,0,0,0,.06-.45.32.32,0,0,0-.45-.06l-1.6,1.23a.33.33,0,0,0-.06.45A.34.34,0,0,0,4.48,24.2Z"/><path class="cls-2" d="M7,30.37H7A.32.32,0,0,0,7.3,30l-.13-1.7a.32.32,0,0,0-.64.05l.13,1.7A.31.31,0,0,0,7,30.37Z"/><path class="cls-2" d="M6.3,12.24a.33.33,0,0,0,.08-.45.32.32,0,0,0-.44-.08l-1.41,1a.32.32,0,0,0-.08.45.3.3,0,0,0,.26.13.31.31,0,0,0,.18-.05Z"/><path class="cls-2" d="M8.89,48.83H9a.32.32,0,0,0,.31-.26l.32-1.68A.32.32,0,0,0,9,46.78l-.31,1.68A.31.31,0,0,0,8.89,48.83Z"/><path class="cls-2" d="M7.74,47.86,6.42,46.78a.32.32,0,0,0-.45,0,.31.31,0,0,0,0,.44l1.32,1.09a.37.37,0,0,0,.2.07.3.3,0,0,0,.24-.12A.31.31,0,0,0,7.74,47.86Z"/><path class="cls-2" d="M9.87,43.12l-1.64.47A.32.32,0,0,0,8,44a.33.33,0,0,0,.31.24l.08,0L10,43.73a.31.31,0,0,0,.22-.39A.32.32,0,0,0,9.87,43.12Z"/><path class="cls-2" d="M8.15,52.73a.29.29,0,0,0,.16,0,.31.31,0,0,0,.27-.15l.88-1.46a.32.32,0,1,0-.54-.33L8,52.29A.31.31,0,0,0,8.15,52.73Z"/><path class="cls-2" d="M7.08,44.13a.31.31,0,0,0-.2.4l.68,2.08a.33.33,0,0,0,.31.22l.1,0a.31.31,0,0,0,.2-.4l-.68-2.08A.32.32,0,0,0,7.08,44.13Z"/><path class="cls-2" d="M7.33,38.5a.31.31,0,0,0,.2.07.3.3,0,0,0,.25-.11l1.1-1.3a.32.32,0,0,0,0-.45.33.33,0,0,0-.45,0l-1.1,1.3A.32.32,0,0,0,7.33,38.5Z"/><path class="cls-2" d="M8.64,39.89a.32.32,0,0,0-.12.43l1.06,1.86a.31.31,0,0,0,.28.16.32.32,0,0,0,.16,0,.32.32,0,0,0,.12-.43L9.08,40A.32.32,0,0,0,8.64,39.89Z"/><path class="cls-2" d="M8.18,43.26h.08a.32.32,0,0,0,.08-.63L6.7,42.2a.31.31,0,0,0-.39.22.32.32,0,0,0,.22.4Z"/><path class="cls-2" d="M7.74,39.37l-.65,1.21a.31.31,0,0,0,.13.43.28.28,0,0,0,.15,0,.32.32,0,0,0,.28-.17l.65-1.21a.32.32,0,1,0-.56-.3Z"/><path class="cls-2" d="M6.76,36.82l1.31-1.08a.32.32,0,0,0,0-.45.31.31,0,0,0-.45,0L6.35,36.33a.32.32,0,0,0,.21.56A.31.31,0,0,0,6.76,36.82Z"/><path class="cls-2" d="M6.93,34.16a.32.32,0,0,0,.31.23l.09,0A.31.31,0,0,0,7.54,34l-.49-1.64a.33.33,0,0,0-.4-.21.32.32,0,0,0-.21.4Z"/><path class="cls-2" d="M7,53.33H7A.32.32,0,0,0,7.3,53l-.13-1.7a.32.32,0,0,0-.34-.3.33.33,0,0,0-.3.35L6.66,53A.32.32,0,0,0,7,53.33Z"/><path class="cls-2" d="M5.76,30.4a.33.33,0,0,0-.38.25l-.18.77L5,32.31a.32.32,0,0,0,.24.38h.07a.32.32,0,0,0,.31-.25l.23-1L6,30.79A.32.32,0,0,0,5.76,30.4Z"/><path class="cls-2" d="M6.71,31.75a.3.3,0,0,0,.26.13.33.33,0,0,0,.19-.06l1.29-.94a.3.3,0,0,0,.07-.44.31.31,0,0,0-.44-.07l-1.3.93A.33.33,0,0,0,6.71,31.75Z"/><path class="cls-2" d="M8.08,53.32l-1.3.94a.33.33,0,0,0-.07.45.33.33,0,0,0,.45.07l.55-.4h0l.74-.54a.3.3,0,0,0,.07-.44A.31.31,0,0,0,8.08,53.32Z"/></g></g></svg>