<svg xmlns="http://www.w3.org/2000/svg" xmlns:xlink="http://www.w3.org/1999/xlink" viewBox="0 0 465.99 163.27"><defs><style>.cls-1{fill:url(#linear-gradient);}.cls-2{fill:#1b75bc;}</style><linearGradient id="linear-gradient" y1="75.92" x2="134.01" y2="75.92" gradientUnits="userSpaceOnUse"><stop offset="0" stop-color="#00aeef"/><stop offset="0.22" stop-color="#0b96da"/><stop offset="0.47" stop-color="#1484c9"/><stop offset="0.72" stop-color="#1979bf"/><stop offset="1" stop-color="#1b75bc"/></linearGradient></defs><title>Asset 21</title><g id="Layer_2" data-name="Layer 2"><g id="Layer_1-2" data-name="Layer 1"><path class="cls-1" d="M127.94,29.37c3.34-9.59,6.52-23,.4-27.44A8.19,8.19,0,0,0,121,.22a14.2,14.2,0,0,0-9.89,8,33.33,33.33,0,0,1-8.41,10.71C95.21,25.2,85.6,27.25,74.11,25,39.3,18.28,21.67,36,14.79,45.8A15.53,15.53,0,0,0,2.11,69.14l43.68,75a15.48,15.48,0,0,0,12.83,7.7h.61a15.53,15.53,0,0,0,13.42-23.36l-5.35-9.18,0-.92a13,13,0,0,0,.45-2.28,5.22,5.22,0,0,1,1.67-2.93c2.12-1.85,6.38-2.63,12-2.18.48,0,1,.07,1.43.09l1.52,0c29.18,0,40.82-33.2,41.3-34.64a12.34,12.34,0,0,0-2.77-12.55,76.92,76.92,0,0,0,10.43-19.76A12.69,12.69,0,0,0,127.94,29.37Zm-66.25,109a3.59,3.59,0,0,1-3.58,2.71,4.29,4.29,0,0,1-.79-.11,3.6,3.6,0,0,1-2.2-1.65L10.87,64.72a3.59,3.59,0,1,1,6.18-3.67L61.3,135.69A3.55,3.55,0,0,1,61.69,138.41Zm21-40.76q-.49,0-1-.06c-9.11-.72-16.09,1-20.78,5.11a17,17,0,0,0-5.69,10.77.47.47,0,0,1-.36.43.29.29,0,0,1-.13,0,.47.47,0,0,1-.39-.23L47.68,102.1a.49.49,0,0,1,0-.41c.07-.19,7.63-19.38,32.55-14.31,10.12,2.07,18.68-.08,25.45-6.39a30.63,30.63,0,0,0,7.19-10.18.47.47,0,0,1,.89.32C113.63,71.41,104.16,98.49,82.67,97.65ZM122,40.33c-.12.37-13,37.09-42.2,34.84-12-1-21.17,1.32-27.34,6.71A22.37,22.37,0,0,0,45,96.08a.64.64,0,0,1-.48.57.47.47,0,0,1-.17,0,.62.62,0,0,1-.51-.31L35.07,81.1a.62.62,0,0,1,0-.53c.09-.26,10-25.53,42.86-18.84,13.32,2.71,24.6-.12,33.51-8.42a40.44,40.44,0,0,0,9.48-13.41.62.62,0,0,1,1.16.43Zm1.36-27c-.14.41-14.63,39.62-47.7,38.32l-1.54-.09c-14.43-1.09-25.4,1.54-32.6,7.83a23.85,23.85,0,0,0-8.12,15.06.7.7,0,0,1-.54.64.41.41,0,0,1-.19,0,.73.73,0,0,1-.58-.33L21.84,58a.73.73,0,0,1-.05-.63c.11-.28,11.68-28.05,50-20.62C109.08,44,122,13.18,122.09,12.87a.7.7,0,0,1,1.31.5Z"/><path class="cls-2" d="M208.56,16.89a5.13,5.13,0,0,1,1.37,3.76V68.47A4.81,4.81,0,0,1,208.64,72a4.58,4.58,0,0,1-3.39,1.29A4.32,4.32,0,0,1,201.94,72a5,5,0,0,1-1.21-3.55V35.19L187,61.2a7.83,7.83,0,0,1-2.1,2.62,4.27,4.27,0,0,1-2.66.85,4.49,4.49,0,0,1-2.67-.81,7.58,7.58,0,0,1-2.1-2.66L163.65,35.59V68.47A4.94,4.94,0,0,1,162.4,72a4.9,4.9,0,0,1-6.67,0,5,5,0,0,1-1.21-3.55V20.65a5.24,5.24,0,0,1,1.34-3.76,4.68,4.68,0,0,1,3.59-1.41q3.15,0,4.93,3.47l17.93,34.17L200.16,19c1.19-2.31,2.77-3.47,4.77-3.47A4.84,4.84,0,0,1,208.56,16.89Z"/><path class="cls-2" d="M246.73,36.44q4,4.08,4,12.4V68.55a4.57,4.57,0,0,1-1.3,3.43,4.85,4.85,0,0,1-3.55,1.25,4.71,4.71,0,0,1-3.43-1.29,4.5,4.5,0,0,1-1.34-3.39V66.77a10.51,10.51,0,0,1-4.32,4.93A13,13,0,0,1,230,73.47a15.93,15.93,0,0,1-7.19-1.61,12.81,12.81,0,0,1-5.09-4.44,11.25,11.25,0,0,1-1.86-6.31,10,10,0,0,1,2.22-6.86q2.22-2.51,7.23-3.64a66.09,66.09,0,0,1,13.81-1.13h2V47.63q0-4-1.69-5.78T233.92,40a17.29,17.29,0,0,0-4.76.69q-2.43.69-5.74,2a8.06,8.06,0,0,1-3.07,1,3,3,0,0,1-2.38-1A4,4,0,0,1,217,40a4.12,4.12,0,0,1,.69-2.38,6.51,6.51,0,0,1,2.3-1.9,26.36,26.36,0,0,1,6.75-2.42,34.9,34.9,0,0,1,7.71-.89Q242.72,32.36,246.73,36.44ZM238.57,63.5a9.78,9.78,0,0,0,2.54-7v-1.7h-1.45a56,56,0,0,0-8.4.49A8.11,8.11,0,0,0,227,57a4.31,4.31,0,0,0-1.29,3.31,5.49,5.49,0,0,0,1.81,4.24A6.43,6.43,0,0,0,232,66.2,8.64,8.64,0,0,0,238.57,63.5Z"/><path class="cls-2" d="M293.7,68.47a4.78,4.78,0,0,1-1.34,3.31,4.07,4.07,0,0,1-3.11,1.45,4.75,4.75,0,0,1-3.31-1.45L267,54.65V68.47A4.35,4.35,0,0,1,265.59,72,5.48,5.48,0,0,1,262,73.23,5.31,5.31,0,0,1,258.36,72a4.43,4.43,0,0,1-1.42-3.55V20.24a4.43,4.43,0,0,1,1.42-3.55A5.31,5.31,0,0,1,262,15.48a5.48,5.48,0,0,1,3.64,1.21A4.35,4.35,0,0,1,267,20.24V50.61l17.29-16.55a4.56,4.56,0,0,1,3.31-1.46,4.68,4.68,0,0,1,4.6,4.61,4.72,4.72,0,0,1-1.53,3.39L278,52.39,292.08,65A4.68,4.68,0,0,1,293.7,68.47Z"/><path class="cls-2" d="M329.12,63.05a4.42,4.42,0,0,1,.85,2.83q0,2.5-3,4.2a26.81,26.81,0,0,1-6.22,2.46,25.69,25.69,0,0,1-6.63.93q-9.53,0-15.1-5.49t-5.57-15a23,23,0,0,1,2.42-10.75,17.67,17.67,0,0,1,6.82-7.27,19.38,19.38,0,0,1,10-2.58A17.93,17.93,0,0,1,322,34.7a15.92,15.92,0,0,1,6.14,6.62,22.08,22.08,0,0,1,2.18,10.1c0,2.32-1,3.47-3.07,3.47H303.39q.48,5.58,3.15,8.2t7.75,2.63a14.74,14.74,0,0,0,4.57-.65,45.58,45.58,0,0,0,4.48-1.77A8.84,8.84,0,0,1,326.9,62,2.73,2.73,0,0,1,329.12,63.05Zm-22.78-21a12.22,12.22,0,0,0-2.95,7.43h18.25q-.15-4.92-2.42-7.47a8,8,0,0,0-6.3-2.54A8.66,8.66,0,0,0,306.34,42.05Z"/><path class="cls-2" d="M368,36.4q3.47,4,3.47,12.19V68.47A4.71,4.71,0,0,1,370.15,72a5.06,5.06,0,0,1-3.68,1.29A5.19,5.19,0,0,1,362.76,72a4.63,4.63,0,0,1-1.37-3.55V49.16q0-4.6-1.74-6.7t-5.45-2.1a9.22,9.22,0,0,0-7,2.74,10.19,10.19,0,0,0-2.63,7.35v18A4.63,4.63,0,0,1,343.21,72a5.19,5.19,0,0,1-3.71,1.29A5.06,5.06,0,0,1,335.82,72a4.71,4.71,0,0,1-1.33-3.55V37.21a4.44,4.44,0,0,1,1.37-3.4,5.21,5.21,0,0,1,3.72-1.29A4.83,4.83,0,0,1,343,33.77,4.29,4.29,0,0,1,344.34,37v2.18a13.65,13.65,0,0,1,5.42-5.08,16.19,16.19,0,0,1,7.67-1.78Q364.54,32.36,368,36.4Z"/><path class="cls-2" d="M411.63,69a3.57,3.57,0,0,1-1.13,2.79,5,5,0,0,1-3.39,1h-27a4.51,4.51,0,0,1-3.32-1.29,4.22,4.22,0,0,1-1.29-3.07A5.42,5.42,0,0,1,377,64.91l20.75-24h-18a5.06,5.06,0,0,1-3.39-1,3.51,3.51,0,0,1-1.13-2.83,3.49,3.49,0,0,1,1.13-2.82,5.06,5.06,0,0,1,3.39-1h26.09a4.54,4.54,0,0,1,3.35,1.25,4.21,4.21,0,0,1,1.26,3.11A5.33,5.33,0,0,1,409,41.24l-20.84,24h18.91Q411.63,65.23,411.63,69Z"/><path class="cls-2" d="M415.51,23.84a5.08,5.08,0,0,1-1.62-3.92A5,5,0,0,1,415.51,16a6.24,6.24,0,0,1,4.36-1.45A6.32,6.32,0,0,1,424.19,16a4.91,4.91,0,0,1,1.65,3.88,5.08,5.08,0,0,1-1.61,3.92,7.12,7.12,0,0,1-8.72,0Zm.76,48.22a4.54,4.54,0,0,1-1.41-3.59V37.29a4.43,4.43,0,0,1,1.41-3.56,5.32,5.32,0,0,1,3.6-1.21,5.47,5.47,0,0,1,3.63,1.21A4.37,4.37,0,0,1,425,37.29V68.47a4.47,4.47,0,0,1-1.46,3.59,5.39,5.39,0,0,1-3.63,1.25A5.24,5.24,0,0,1,416.27,72.06Z"/><path class="cls-2" d="M464.82,63.05a4.42,4.42,0,0,1,.85,2.83q0,2.5-3,4.2a26.81,26.81,0,0,1-6.22,2.46,25.69,25.69,0,0,1-6.63.93q-9.52,0-15.1-5.49t-5.57-15a23,23,0,0,1,2.42-10.75,17.67,17.67,0,0,1,6.82-7.27,19.38,19.38,0,0,1,10-2.58,17.93,17.93,0,0,1,9.29,2.34,15.92,15.92,0,0,1,6.14,6.62A22.08,22.08,0,0,1,466,51.42c0,2.32-1,3.47-3.07,3.47H439.09q.48,5.58,3.15,8.2c1.78,1.75,4.36,2.63,7.76,2.63a14.72,14.72,0,0,0,4.56-.65A45.58,45.58,0,0,0,459,63.3,8.84,8.84,0,0,1,462.6,62,2.73,2.73,0,0,1,464.82,63.05ZM442,42.05a12.22,12.22,0,0,0-3,7.43h18.26q-.17-4.92-2.43-7.47a8,8,0,0,0-6.3-2.54A8.68,8.68,0,0,0,442,42.05Z"/><path class="cls-2" d="M155.69,146.8a4.85,4.85,0,0,1-1.33-3.64V96.07a4.85,4.85,0,0,1,1.33-3.64,5.08,5.08,0,0,1,3.68-1.29h16q14,0,21.69,7.47t7.71,21q0,13.58-7.71,21.05t-21.69,7.47h-16A5.08,5.08,0,0,1,155.69,146.8Zm19-7.19q19.62,0,19.62-20T174.72,99.62h-9.94v40Z"/><path class="cls-2" d="M243.82,138.31a4.42,4.42,0,0,1,.85,2.83q0,2.51-3,4.2a26.38,26.38,0,0,1-6.22,2.46,25.63,25.63,0,0,1-6.63.93q-9.53,0-15.1-5.49t-5.57-15a23,23,0,0,1,2.42-10.75,17.67,17.67,0,0,1,6.82-7.27,19.38,19.38,0,0,1,10-2.58,17.91,17.91,0,0,1,9.29,2.34,15.89,15.89,0,0,1,6.14,6.63A22,22,0,0,1,245,126.68q0,3.48-3.07,3.48H218.09q.48,5.57,3.15,8.19C223,140.1,225.6,141,229,141a14.42,14.42,0,0,0,4.56-.65,45.58,45.58,0,0,0,4.48-1.77,9,9,0,0,1,3.56-1.3A2.73,2.73,0,0,1,243.82,138.31Zm-22.78-21a12.22,12.22,0,0,0-2.95,7.43h18.26q-.16-4.92-2.43-7.47a8,8,0,0,0-6.3-2.54A8.68,8.68,0,0,0,221,117.31Z"/><path class="cls-2" d="M249.27,145.26a4.82,4.82,0,0,1-2.58-4.36,3.85,3.85,0,0,1,.88-2.63,2.82,2.82,0,0,1,2.19-1,9,9,0,0,1,3.79,1.3,35.9,35.9,0,0,0,4.73,1.85,18.84,18.84,0,0,0,5.45.65,10.42,10.42,0,0,0,5.29-1.13,3.51,3.51,0,0,0,1.9-3.15,3,3,0,0,0-.77-2.18,7,7,0,0,0-2.75-1.5,59.4,59.4,0,0,0-6-1.57q-7.2-1.46-10.3-4.12a9.15,9.15,0,0,1-3.11-7.35,10.6,10.6,0,0,1,2.1-6.42,13.62,13.62,0,0,1,5.77-4.45,21.05,21.05,0,0,1,8.36-1.57,24.93,24.93,0,0,1,6.55.85,19.63,19.63,0,0,1,5.65,2.46,4.87,4.87,0,0,1,2.58,4.28,4.16,4.16,0,0,1-.88,2.71,2.75,2.75,0,0,1-2.18,1.09,4.22,4.22,0,0,1-1.74-.37,20.83,20.83,0,0,1-2.14-1.09,34.25,34.25,0,0,0-4-1.81,12.43,12.43,0,0,0-4.2-.61,8.14,8.14,0,0,0-4.73,1.21,3.84,3.84,0,0,0-1.73,3.32,3.36,3.36,0,0,0,1.77,3.06,24.87,24.87,0,0,0,6.87,2.1,39.46,39.46,0,0,1,8.48,2.59,9.88,9.88,0,0,1,4.4,3.63,10.57,10.57,0,0,1,1.34,5.58,10.37,10.37,0,0,1-4.57,8.8q-4.56,3.32-12.15,3.31Q254.69,148.73,249.27,145.26Z"/><path class="cls-2" d="M285,99.1a5.08,5.08,0,0,1-1.61-3.92A5,5,0,0,1,285,91.3a7.22,7.22,0,0,1,8.68,0,4.89,4.89,0,0,1,1.66,3.88,5.11,5.11,0,0,1-1.61,3.92,7.14,7.14,0,0,1-8.73,0Zm.77,48.22a4.54,4.54,0,0,1-1.41-3.59V112.55a4.45,4.45,0,0,1,1.41-3.56,5.36,5.36,0,0,1,3.59-1.21A5.53,5.53,0,0,1,293,109a4.38,4.38,0,0,1,1.45,3.56v31.18a4.47,4.47,0,0,1-1.45,3.59,5.4,5.4,0,0,1-3.64,1.25A5.23,5.23,0,0,1,285.74,147.32Z"/><path class="cls-2" d="M337.88,109.07a4.58,4.58,0,0,1,1.37,3.48v31.9q0,9.3-5.17,14.06t-15.26,4.76q-8.81,0-14.7-3.31c-2-1.18-3-2.61-3-4.28a4.42,4.42,0,0,1,.84-2.83,2.73,2.73,0,0,1,2.23-1,5.43,5.43,0,0,1,1.77.37c.7.24,1.43.52,2.18.84a46.18,46.18,0,0,0,5.21,1.86,19.69,19.69,0,0,0,5.29.65q10.59,0,10.59-10.34V140a12.36,12.36,0,0,1-5.17,5.13,16.22,16.22,0,0,1-7.76,1.82,16.7,16.7,0,0,1-15.43-9.37,22.4,22.4,0,0,1-2.26-10.26,22.92,22.92,0,0,1,2.22-10.3,16.57,16.57,0,0,1,6.26-7,17.39,17.39,0,0,1,9.21-2.46,16.11,16.11,0,0,1,7.76,1.82,12.36,12.36,0,0,1,5.17,5.13v-2.1a4.45,4.45,0,0,1,1.37-3.4,5.77,5.77,0,0,1,7.27,0ZM326.53,136c1.8-2.1,2.71-5,2.71-8.64s-.91-6.62-2.71-8.73a10.58,10.58,0,0,0-15.06,0c-1.84,2.11-2.75,5-2.75,8.73s.91,6.54,2.75,8.64a10.58,10.58,0,0,0,15.06,0Z"/><path class="cls-2" d="M379.15,111.66q3.48,4,3.48,12.19v19.88a4.75,4.75,0,0,1-1.33,3.55,5.08,5.08,0,0,1-3.68,1.29,5.19,5.19,0,0,1-3.71-1.29,4.63,4.63,0,0,1-1.38-3.55V124.42q0-4.61-1.74-6.7t-5.45-2.1a9.21,9.21,0,0,0-7,2.74,10.15,10.15,0,0,0-2.63,7.35v18a4.66,4.66,0,0,1-1.37,3.55,5.23,5.23,0,0,1-3.72,1.29,5,5,0,0,1-3.67-1.29,4.72,4.72,0,0,1-1.34-3.55V112.47a4.46,4.46,0,0,1,1.38-3.4,5.19,5.19,0,0,1,3.71-1.29,4.85,4.85,0,0,1,3.44,1.25,4.32,4.32,0,0,1,1.33,3.27v2.18a13.63,13.63,0,0,1,5.41-5.08,16.22,16.22,0,0,1,7.67-1.78Q375.68,107.62,379.15,111.66Z"/></g></g></svg>