<svg xmlns="http://www.w3.org/2000/svg" width="30.502" height="25" viewBox="0 0 30.502 25">
  <path id="Path_7" data-name="Path 7" d="M0,22.184a13.025,13.025,0,0,0,9.243-2.567A6.259,6.259,0,0,1,3.389,15.2a8.393,8.393,0,0,0,2.773-.1,6.208,6.208,0,0,1-4.93-6.265,6.282,6.282,0,0,0,1.232.513A6.061,6.061,0,0,0,3.9,9.552a6.851,6.851,0,0,1-2.567-3.8A6.652,6.652,0,0,1,2.054,1.13,18.13,18.13,0,0,0,14.994,7.7c0-.411-.1-.719-.1-1.13a6.319,6.319,0,0,1,.719-3.389A6.046,6.046,0,0,1,19.1.309a6.114,6.114,0,0,1,6.367,1.438.635.635,0,0,0,.719.205A18.023,18.023,0,0,0,29.475.72c.1,0,.205-.1.308-.1a6.236,6.236,0,0,1-2.67,3.389A12.586,12.586,0,0,0,30.5,3.184a5.644,5.644,0,0,1-.719.924,9.065,9.065,0,0,1-2.259,2.157c-.205.1-.205.205-.205.411a18.429,18.429,0,0,1-3.492,11.3,15.959,15.959,0,0,1-7.394,5.751,19.074,19.074,0,0,1-7.6,1.232,18.635,18.635,0,0,1-6.675-1.54A11.555,11.555,0,0,1,0,22.184Z" transform="translate(0 0.028)" fill="#f5f5f5"/>
</svg>
