<svg xmlns="http://www.w3.org/2000/svg" viewBox="0 0 133.97 151.87"><defs><style>.cls-1{fill:#fff;}</style></defs><title>Asset 1</title><g id="Layer_2" data-name="Layer 2"><g id="Layer_1-2" data-name="Layer 1"><path class="cls-1" d="M128,29.4c3.34-9.59,6.52-23,.4-27.44A8.21,8.21,0,0,0,121,.25a14.21,14.21,0,0,0-9.89,8A33.36,33.36,0,0,1,102.71,19c-7.49,6.27-17.1,8.32-28.59,6.07C39.31,18.31,21.68,36,14.8,45.83A15.53,15.53,0,0,0,2.12,69.17l43.68,75a15.47,15.47,0,0,0,12.83,7.7h.61a15.53,15.53,0,0,0,13.42-23.36l-5.35-9.18v-.92a13.33,13.33,0,0,0,.45-2.28,5.18,5.18,0,0,1,1.67-2.93c2.12-1.85,6.38-2.63,12-2.18.48,0,1,.07,1.43.09h1.52c29.18,0,40.82-33.2,41.3-34.64a12.35,12.35,0,0,0-2.77-12.55,77,77,0,0,0,10.43-19.76A12.7,12.7,0,0,0,128,29.4Zm-66.25,109v0a3.59,3.59,0,0,1-3.58,2.71,4.18,4.18,0,0,1-.79-.11,3.54,3.54,0,0,1-2.2-1.65L10.88,64.75a3.59,3.59,0,0,1,6.18-3.67l44.25,74.64A3.55,3.55,0,0,1,61.7,138.44Zm52.07-67.28c-.13.28-9.6,27.36-31.09,26.52l0,0a8.51,8.51,0,0,1-1-.06c-9.11-.72-16.09,1-20.78,5.11a17,17,0,0,0-5.69,10.77.47.47,0,0,1-.36.43.28.28,0,0,1-.13,0,.45.45,0,0,1-.39-.23l-6.66-11.53a.49.49,0,0,1,0-.41c.07-.19,7.63-19.38,32.55-14.31,10.12,2.07,18.68-.08,25.45-6.39a30.66,30.66,0,0,0,7.19-10.18.47.47,0,0,1,.89.32Zm8.32-30.8H122c-.12.37-13,37.09-42.2,34.84-12-1-21.17,1.32-27.34,6.71A22.34,22.34,0,0,0,45,96.11a.63.63,0,0,1-.48.57h-.17a.6.6,0,0,1-.51-.31L35.08,81.13a.62.62,0,0,1,0-.53c.09-.26,10-25.53,42.86-18.84,13.32,2.71,24.6-.12,33.51-8.42a40.47,40.47,0,0,0,9.48-13.41.62.62,0,0,1,.82-.31A.64.64,0,0,1,122.09,40.36Zm1.32-27,0,0c-.14.41-14.63,39.62-47.7,38.32l-1.54-.09c-14.43-1.09-25.4,1.54-32.6,7.83a23.85,23.85,0,0,0-8.12,15.06.7.7,0,0,1-.54.64.31.31,0,0,1-.19,0,.72.72,0,0,1-.58-.33L21.85,58a.73.73,0,0,1-.05-.63c.11-.28,11.68-28,50-20.62C109.09,44,122,13.21,122.1,12.9a.7.7,0,0,1,1.31.5Z"/></g></g></svg>