<svg xmlns="http://www.w3.org/2000/svg" viewBox="0 0 192.92 143.44"><defs><style>.cls-1{fill:#3c53a4;}</style></defs><title>Asset 21</title><g id="Layer_2" data-name="Layer 2"><g id="Layer_1-2" data-name="Layer 1"><path class="cls-1" d="M56.7,41.19a.55.55,0,0,0,.07.77l2.28,1.87a.53.53,0,0,0,.35.13.57.57,0,0,0,.43-.2.55.55,0,0,0-.08-.78l-2.28-1.87A.54.54,0,0,0,56.7,41.19Z"/><path class="cls-1" d="M57.26,43.14a.56.56,0,0,0-.78-.06l-2.9,2.48a.55.55,0,0,0,.36,1,.53.53,0,0,0,.36-.13l2.9-2.48A.56.56,0,0,0,57.26,43.14Z"/><path class="cls-1" d="M57.68,47.9l1.71-2.4a.55.55,0,0,0-.9-.64l-1.71,2.4a.55.55,0,0,0,.45.87A.56.56,0,0,0,57.68,47.9Z"/><path class="cls-1" d="M59.45,40.81a.55.55,0,0,0,.52.38.47.47,0,0,0,.17,0,.55.55,0,0,0,.36-.69l-1.19-3.6a.56.56,0,0,0-.7-.35.57.57,0,0,0-.35.7Z"/><path class="cls-1" d="M56.07,18.61a.54.54,0,0,0,0-.78.55.55,0,0,0-.77,0l-1.87,2.07a.55.55,0,0,0,0,.78.59.59,0,0,0,.37.14.55.55,0,0,0,.41-.18Z"/><path class="cls-1" d="M56.47,37.47a.56.56,0,0,0,.35.13.55.55,0,0,0,.42-.2.55.55,0,0,0-.07-.78L54.9,34.74a.55.55,0,0,0-.7.85Z"/><path class="cls-1" d="M55.11,24.37a.54.54,0,0,0-.2.75l1.48,2.53a.57.57,0,0,0,.76.2.56.56,0,0,0,.2-.76l-1.49-2.52A.54.54,0,0,0,55.11,24.37Z"/><path class="cls-1" d="M56.18,32.77a.54.54,0,0,0,.28-.08.55.55,0,0,0,.19-.76l-1.89-3.12a.55.55,0,0,0-.95.57l1.9,3.12A.55.55,0,0,0,56.18,32.77Z"/><path class="cls-1" d="M54.11,41.76a.6.6,0,0,0,.34-.11l2.76-2.12a.56.56,0,0,0-.68-.88l-2.76,2.12a.55.55,0,0,0-.1.77A.53.53,0,0,0,54.11,41.76Z"/><path class="cls-1" d="M58.44,52.43h0a.55.55,0,0,0,.51-.59l-.23-2.94a.55.55,0,0,0-1.09.09l.22,2.93A.55.55,0,0,0,58.44,52.43Z"/><path class="cls-1" d="M57.25,21.07a.55.55,0,0,0,.15-.76.56.56,0,0,0-.77-.15L54.2,21.83a.54.54,0,0,0-.14.76.53.53,0,0,0,.45.24.56.56,0,0,0,.31-.09Z"/><path class="cls-1" d="M61.74,84.35h.1a.55.55,0,0,0,.54-.45L62.93,81a.56.56,0,1,0-1.09-.21l-.54,2.9A.54.54,0,0,0,61.74,84.35Z"/><path class="cls-1" d="M59.75,82.68l-2.28-1.87a.54.54,0,0,0-.77.07.56.56,0,0,0,.07.78l2.28,1.87a.57.57,0,0,0,.78-.08A.54.54,0,0,0,59.75,82.68Z"/><path class="cls-1" d="M63.43,74.48l-2.84.81a.54.54,0,0,0-.37.68.56.56,0,0,0,.53.4l.15,0,2.83-.81a.57.57,0,0,0,.38-.69A.55.55,0,0,0,63.43,74.48Z"/><path class="cls-1" d="M60.45,91.09a.6.6,0,0,0,.29.08.56.56,0,0,0,.47-.27l1.52-2.52a.55.55,0,1,0-.94-.57l-1.52,2.52A.55.55,0,0,0,60.45,91.09Z"/><path class="cls-1" d="M58.61,76.22a.55.55,0,0,0-.35.69l1.19,3.6a.55.55,0,0,0,.52.38.47.47,0,0,0,.17,0,.57.57,0,0,0,.36-.7l-1.19-3.59A.55.55,0,0,0,58.61,76.22Z"/><path class="cls-1" d="M59,66.49a.59.59,0,0,0,.36.13.56.56,0,0,0,.42-.2l1.9-2.24a.55.55,0,0,0-.84-.72L59,65.71A.55.55,0,0,0,59,66.49Z"/><path class="cls-1" d="M61.32,68.88a.56.56,0,0,0-.21.76l1.83,3.21a.55.55,0,0,0,.48.28.54.54,0,0,0,.27-.07.56.56,0,0,0,.21-.75l-1.83-3.22A.56.56,0,0,0,61.32,68.88Z"/><path class="cls-1" d="M60.51,74.71l.14,0a.55.55,0,0,0,.14-1.08L58,72.88a.56.56,0,0,0-.68.39.56.56,0,0,0,.39.68Z"/><path class="cls-1" d="M59.75,68l-1.13,2.09a.56.56,0,0,0,.23.75.58.58,0,0,0,.26.06.54.54,0,0,0,.49-.29l1.12-2.09a.55.55,0,0,0-.23-.74A.53.53,0,0,0,59.75,68Z"/><path class="cls-1" d="M58.05,63.58l2.28-1.87a.55.55,0,1,0-.7-.85l-2.28,1.87a.55.55,0,0,0-.07.78.55.55,0,0,0,.42.2A.51.51,0,0,0,58.05,63.58Z"/><path class="cls-1" d="M58.35,59a.56.56,0,0,0,.53.4.45.45,0,0,0,.16,0,.55.55,0,0,0,.37-.68l-.85-2.83a.56.56,0,0,0-.69-.37.56.56,0,0,0-.37.69Z"/><path class="cls-1" d="M58.44,92.13h0a.56.56,0,0,0,.51-.59l-.23-2.94a.55.55,0,0,0-.59-.51.54.54,0,0,0-.5.59l.22,2.94A.55.55,0,0,0,58.44,92.13Z"/><path class="cls-1" d="M56.32,52.49a.54.54,0,0,0-.65.42l-.3,1.34L55,55.78a.55.55,0,0,0,.41.66h.12A.55.55,0,0,0,56.1,56l.4-1.77.24-1.1A.55.55,0,0,0,56.32,52.49Z"/><path class="cls-1" d="M58,54.81a.56.56,0,0,0,.45.23.53.53,0,0,0,.32-.1L61,53.32a.55.55,0,0,0,.13-.77.56.56,0,0,0-.77-.13L58.1,54A.56.56,0,0,0,58,54.81Z"/><path class="cls-1" d="M60.34,92.12,58.1,93.74a.55.55,0,0,0,.32,1,.54.54,0,0,0,.32-.11l1-.69h0L61,93a.55.55,0,0,0,.13-.77A.56.56,0,0,0,60.34,92.12Z"/><path class="cls-1" d="M131.38,0,90,5.05l-1.52.18-4.68.57L82.44,6l-1.56.19-1.1.14-1.47.18-1.06.13-4.78.58-.61.07-.49.06L62.71,8.38l-1,.12-3.12.38-.89.1-.24,0-5.43,4.4-1,.79L46.45,18l3.88,45.91.07.83L50.51,66l.09,1.11.26,3.1L51,72.1l.27,3.22.05.49.4,4.85.1,1.14L52,83.3l.09,1.11.25,3,.09,1.08.93,10.94.05.65.22,2.61.09,1.07.2,2.36.12,1.32,0,.57.12,1.37.09,1.12.23,2.66,2.86-.33,1-.12,4.37-.51H92.28V92.61h21.61v19.56h17.49l6.22-94ZM64.51,78.33l-1.78-1.46a.54.54,0,0,0-.77.07.55.55,0,0,0,.07.78l2.28,1.87,0,0-.15,1.22a.4.4,0,0,0-.15,0,.55.55,0,0,0-.33.7l.29.8-.28,2.29-2.44,1a.55.55,0,0,0,.21,1.06.64.64,0,0,0,.2,0l1.88-.75-.25,2-.59,4.88-.23-1.33a.55.55,0,0,0-1.09.19l.39,2.29.11.61a.54.54,0,0,0,.26.39.55.55,0,0,0,.28.07h0l-.18,1.54-2.17-1.49a.55.55,0,1,0-.63.91l2.58,1.77.06,0L62,99.32a.58.58,0,0,0-.53.15.56.56,0,0,0,0,.78l.37.36L61.5,103a.56.56,0,0,0-.62.16L59,105.4a.55.55,0,0,0,.06.78.53.53,0,0,0,.36.13.55.55,0,0,0,.42-.19l1.51-1.79-.42,3.49-.14,0a.55.55,0,0,0-1-.15l-.16.29-1,.11-.42-4.93,2.13-1.75a.55.55,0,1,0-.7-.86l-1.54,1.27-.47-5.59.73,2.45a.55.55,0,0,0,.53.39l.16,0a.56.56,0,0,0,.37-.69l-.85-2.82a.55.55,0,0,0-1-.11l-.65-7.72v0a.63.63,0,0,0,.32.1.56.56,0,0,0,.45-.23l1.71-2.4a.56.56,0,0,0-.13-.77.55.55,0,0,0-.77.13l-1.66,2.33-.24-2.76.61-.51a.56.56,0,0,0,.06-.78.55.55,0,0,0-.78-.06h0L56.24,80l1-.74a.55.55,0,1,0-.68-.87l-.4.31L56,76.75l.5.41a.51.51,0,0,0,.35.13.55.55,0,0,0,.35-1l-1.33-1.11L55.56,72l.15.24a.54.54,0,0,0,.47.26.46.46,0,0,0,.28-.08.55.55,0,0,0,.19-.76l-1.29-2.13L55,64.92l1.42,2.43a.57.57,0,0,0,.48.27.48.48,0,0,0,.28-.08.55.55,0,0,0,.2-.75l-1.49-2.53a.55.55,0,0,0-1,0l-.15-1.79.06,0,2.43-1.66a.55.55,0,1,0-.62-.91l-2,1.35L54.55,60l1.52-1.68a.54.54,0,0,0,0-.78.53.53,0,0,0-.77,0l-.84.92L54,53.44a.5.5,0,0,0,.12-.08l2.27-1.88a.55.55,0,0,0-.7-.85l-1.8,1.5-.12-1.37h0a.55.55,0,0,0,.51-.33l1.16-2.71a.56.56,0,1,0-1-.44l-.83,1.94-.76-9a.52.52,0,0,0,.2-.33l.55-2.9a.55.55,0,0,0-1.05-.31l-.15-1.78a.58.58,0,0,0,.1-.12l1.52-2.52a.55.55,0,0,0-.18-.76.56.56,0,0,0-.76.19l-.84,1.38L52,29.61a.47.47,0,0,0,.27-.12l2.26-1.88a.54.54,0,0,0,.07-.78.55.55,0,0,0-.77-.07l-1.93,1.61-.1-1.14a.48.48,0,0,0,.1-.28.52.52,0,0,0-.16-.43l-.14-1.65,2.09-.51a.55.55,0,0,0-.27-1.07l-1.91.47L51.17,20l.23-.19.45,2.37a.55.55,0,0,0,.54.44h.1a.54.54,0,0,0,.44-.64l-.56-3,2.85-2.33a.49.49,0,0,0,.22.1l.12,0a.56.56,0,0,0,.54-.43l.11-.5,2.06-1.69v.08l-.18.13a.56.56,0,0,0-.13.77.54.54,0,0,0,.42.22l.07.62a.55.55,0,0,0-1,.51l.85,2.82a.56.56,0,0,0,.48.39l.2,2L57.35,23a.55.55,0,0,0-.07.78.55.55,0,0,0,.77.08L59.16,23l.26,2.52L59,26a.55.55,0,0,0,.06.78.53.53,0,0,0,.36.13.45.45,0,0,0,.16,0l.15,1.48-1.09,2a.55.55,0,0,0,.23.74.48.48,0,0,0,.26.07.56.56,0,0,0,.49-.29l.31-.58.35,3.48L58,33.19a.55.55,0,1,0-.29,1.06l2.71.73.07.69a.55.55,0,0,0-.22.61.56.56,0,0,0,.32.35l.75,7.46a.78.78,0,0,0,0,.16l.16,1.62-.17.07A.55.55,0,0,0,61.51,47h.08l.12,1.25-1.44,2.39a.55.55,0,0,0,.18.76.6.6,0,0,0,.29.08.54.54,0,0,0,.47-.27l.69-1.13L62,51.31h-.14a.55.55,0,0,0-.45.63l.39,2.3.11.61a.54.54,0,0,0,.49.45l.18,1.76-2.48-1.71a.55.55,0,1,0-.63.91l2.58,1.78a.61.61,0,0,0,.31.09.51.51,0,0,0,.32-.1L63,60.51l-.75-.74a.55.55,0,1,0-.78.78l1.7,1.69.21,2L62,67.56a.55.55,0,0,0,.32.71.45.45,0,0,0,.2,0,.55.55,0,0,0,.51-.35l.5-1.29,0,.53,1,10.09Zm49.65-3.83-23.94.28-.42-3.69-.29-2.56L89.33,67l-.12-1.12-1.09-9.62-.21-1.79-.62-5.44-.2-1.8-.29-2.57-.12-1.07L86.38,41l-.31-2.77-.19-1.63-.13-1.13-.27-2.37L85.36,32l-.12-1-.12-1.12L85,28.74l-.15-1.35-.37-3.23v0l-.39-2.53h35.32Z"/><path class="cls-1" d="M11.6,141.42h-6l-.47,1.77H0l5.48-18.74h6.23l5.44,18.74H12.07Zm-1.15-4.29-1.88-7.2-1.91,7.2Z"/><path class="cls-1" d="M18.81,134c0-5.58,4-9.76,9.33-9.76a10,10,0,0,1,5.15,1.33l-2.55,4.11a4.62,4.62,0,0,0-2.35-.61c-2.77,0-4.53,2.16-4.53,4.9a4.37,4.37,0,0,0,4.46,4.68,4.91,4.91,0,0,0,2.74-.86l2.56,4a9.66,9.66,0,0,1-5.44,1.66C22.6,143.44,18.81,139.51,18.81,134Z"/><path class="cls-1" d="M48.18,129.14H44v14.05H39.1V129.14H34.92v-4.69H48.18Z"/><path class="cls-1" d="M55.79,124.45v18.74h-4.9V124.45Z"/><path class="cls-1" d="M74.78,124.45l-5.47,18.74H63.07L57.6,124.45h5.11l3.5,13,3.45-13Z"/><path class="cls-1" d="M85.16,141.42h-6l-.47,1.77H73.56L79,124.45h6.23l5.44,18.74H85.63ZM84,137.13l-1.87-7.2-1.91,7.2Z"/><path class="cls-1" d="M105.78,129.14H101.6v14.05H96.7V129.14H92.52v-4.69h13.26Z"/><path class="cls-1" d="M113.39,129.1v2.49h6.26V136h-6.26v2.56h8.35v4.65H108.49V124.45h13.25v4.65Z"/><path class="cls-1" d="M132.62,128.79a10.08,10.08,0,0,0-1.82,1.83L128,128.38a15.07,15.07,0,0,1,1.35-1.61,7.69,7.69,0,0,1,1.47-1.18,6.46,6.46,0,0,1,1.74-.73,8.81,8.81,0,0,1,2.16-.24,8,8,0,0,1,2.59.39,5.66,5.66,0,0,1,2,1.14,5,5,0,0,1,1.24,1.76,6,6,0,0,1,.42,2.3,6.31,6.31,0,0,1-.3,2,6,6,0,0,1-.87,1.69,9.77,9.77,0,0,1-1.48,1.58c-.6.52-1.3,1.1-2.09,1.71l-2.94,2.27h7.86v3.43H127.79v-3.14l6-4.91c.57-.47,1.05-.88,1.44-1.25a8.18,8.18,0,0,0,1-1.05,3.7,3.7,0,0,0,.54-1,3.19,3.19,0,0,0,.17-1,2.23,2.23,0,0,0-.67-1.75,2.53,2.53,0,0,0-1.76-.59A3,3,0,0,0,132.62,128.79Z"/><path class="cls-1" d="M158.77,137.55a9.15,9.15,0,0,1-1.64,3,7.72,7.72,0,0,1-2.54,2,7.38,7.38,0,0,1-3.28.72,7.59,7.59,0,0,1-3.29-.71,7.34,7.34,0,0,1-2.52-2,9.15,9.15,0,0,1-1.61-2.95,11.43,11.43,0,0,1-.57-3.67,11.63,11.63,0,0,1,.58-3.68,9.1,9.1,0,0,1,1.64-3,7.79,7.79,0,0,1,2.53-2,7.56,7.56,0,0,1,9.1,2,9,9,0,0,1,1.61,3,11.4,11.4,0,0,1,.57,3.65A11.51,11.51,0,0,1,158.77,137.55ZM155,131.62a6.11,6.11,0,0,0-.8-1.83,3.89,3.89,0,0,0-1.25-1.21,3.25,3.25,0,0,0-3.25,0,3.76,3.76,0,0,0-1.24,1.18,5.93,5.93,0,0,0-.79,1.82,9.28,9.28,0,0,0-.27,2.29,8.83,8.83,0,0,0,.29,2.3,6.1,6.1,0,0,0,.79,1.83,4,4,0,0,0,1.25,1.21,3.27,3.27,0,0,0,3.26,0,3.73,3.73,0,0,0,1.24-1.2,6,6,0,0,0,.79-1.81,9.14,9.14,0,0,0,.27-2.28A8.83,8.83,0,0,0,155,131.62Z"/><path class="cls-1" d="M166.19,128.79a10.08,10.08,0,0,0-1.82,1.83l-2.78-2.24a14,14,0,0,1,1.35-1.61,7.69,7.69,0,0,1,1.47-1.18,6.46,6.46,0,0,1,1.74-.73,8.81,8.81,0,0,1,2.16-.24,8,8,0,0,1,2.59.39,5.66,5.66,0,0,1,2,1.14,5,5,0,0,1,1.24,1.76,6,6,0,0,1,.42,2.3,6.31,6.31,0,0,1-.3,2,6,6,0,0,1-.87,1.69,9.77,9.77,0,0,1-1.48,1.58c-.6.52-1.3,1.1-2.09,1.71l-2.94,2.27h7.86v3.43H161.36v-3.14l6-4.91c.57-.47,1-.88,1.44-1.25a8.18,8.18,0,0,0,1-1.05,3.7,3.7,0,0,0,.54-1,3.19,3.19,0,0,0,.17-1,2.23,2.23,0,0,0-.67-1.75,2.53,2.53,0,0,0-1.76-.59A3,3,0,0,0,166.19,128.79Z"/><path class="cls-1" d="M192.34,137.55a9.15,9.15,0,0,1-1.64,3,7.72,7.72,0,0,1-2.54,2,7.38,7.38,0,0,1-3.28.72,7.59,7.59,0,0,1-3.29-.71,7.34,7.34,0,0,1-2.52-2,9.15,9.15,0,0,1-1.61-2.95,11.43,11.43,0,0,1-.57-3.67,11.63,11.63,0,0,1,.58-3.68,9.1,9.1,0,0,1,1.64-3,7.79,7.79,0,0,1,2.53-2,7.56,7.56,0,0,1,9.1,2,9,9,0,0,1,1.61,3,11.4,11.4,0,0,1,.57,3.65A11.51,11.51,0,0,1,192.34,137.55Zm-3.78-5.93a6.11,6.11,0,0,0-.8-1.83,3.89,3.89,0,0,0-1.25-1.21,3.25,3.25,0,0,0-3.25,0,3.76,3.76,0,0,0-1.24,1.18,5.7,5.7,0,0,0-.79,1.82,9.28,9.28,0,0,0-.27,2.29,8.83,8.83,0,0,0,.29,2.3A6.1,6.1,0,0,0,182,138a4,4,0,0,0,1.25,1.21,3.27,3.27,0,0,0,3.26,0,3.73,3.73,0,0,0,1.24-1.2,6.24,6.24,0,0,0,.79-1.81,9.14,9.14,0,0,0,.27-2.28A8.83,8.83,0,0,0,188.56,131.62Z"/></g></g></svg>